<svg width="800" height="600" viewBox="0 0 800 600" fill="none" xmlns="http://www.w3.org/2000/svg">
<g clip-path="url(#clip0_1_1559)">
<mask id="mask0_1_1559" style="mask-type:luminance" maskUnits="userSpaceOnUse" x="0" y="0" width="800" height="600">
<path d="M800 0H0V600H800V0Z" fill="white"/>
</mask>
<g mask="url(#mask0_1_1559)">
<path d="M186.159 521.389C186.159 525.002 154.244 527.932 114.873 527.932C75.5028 527.932 43.587 525.002 43.587 521.389C43.587 517.775 75.5028 514.846 114.873 514.846C154.244 514.846 186.159 517.775 186.159 521.389Z" fill="#E5BF9E"/>
<path d="M440.766 241.837C412.778 237.87 386.253 226.929 363.363 210.342C329.175 185.565 257.629 143.406 189.378 164.406C95.239 193.372 94.8196 277.167 119.34 322.684C143.861 368.202 317.746 501.494 543.174 480.285C744.9 461.306 784.211 244.063 676.625 204.752C583.311 170.656 551.475 257.53 440.766 241.837Z" fill="#F1D5B8"/>
<path d="M207.388 408.664C207.388 408.664 193.307 402.225 187.81 413.416C182.314 424.607 202.416 436.073 213.356 432.777C224.295 429.48 222.377 413.001 207.388 408.664Z" fill="#F1D5B8"/>
<path d="M393.375 190.146C393.375 190.146 378.051 185.344 373.845 197.571C369.638 209.797 391.808 218.993 402.637 214.185C413.466 209.377 409.359 192.668 393.375 190.146Z" fill="#F1D5B8"/>
<path d="M88.986 274.95C88.986 274.95 51.8748 270.091 39.9866 245.195C28.0983 220.298 64.236 198.694 84.8335 211.138C106.87 224.451 88.986 274.95 88.986 274.95Z" fill="#006C60"/>
<path d="M115.142 340.688C114.819 340.709 114.521 340.491 114.451 340.165C109.396 316.651 93.0251 283.411 80.1819 259.667C66.255 233.919 53.363 213.487 53.2343 213.283C53.0382 212.973 53.1306 212.563 53.4407 212.367C53.7508 212.171 54.1609 212.263 54.357 212.573C54.4856 212.777 67.4018 233.248 81.3503 259.035C94.2345 282.856 110.661 316.218 115.749 339.886C115.827 340.244 115.599 340.597 115.24 340.675C115.208 340.681 115.174 340.686 115.142 340.688Z" fill="#00433B"/>
<path d="M87.4501 272.566C87.2139 272.582 86.9766 272.47 86.8427 272.255C68.9752 243.609 41.6951 223.758 41.4217 223.562C41.1236 223.347 41.0569 222.931 41.2711 222.634C41.4854 222.337 41.9004 222.27 42.1984 222.484C42.4738 222.682 69.959 242.677 87.9694 271.551C88.1637 271.863 88.0686 272.273 87.7575 272.467C87.6613 272.527 87.556 272.56 87.4501 272.566Z" fill="#00433B"/>
<path d="M88.3113 274.644C88.1236 274.657 87.9325 274.59 87.7913 274.444C75.2788 261.52 62.8229 253.79 54.577 249.58C45.639 245.018 39.5837 243.495 39.5232 243.48C39.1667 243.392 38.9493 243.031 39.0371 242.676C39.1248 242.319 39.485 242.102 39.8415 242.189C40.0918 242.252 46.0717 243.753 55.1352 248.373C63.4824 252.629 76.0892 260.446 88.7458 273.519C89.0011 273.783 88.9942 274.203 88.7303 274.458C88.6123 274.572 88.463 274.634 88.3113 274.644Z" fill="#00433B"/>
<path d="M84.5808 267.073C84.3051 267.091 84.037 266.934 83.9247 266.665C73.2852 241.028 74.4979 208.95 74.5113 208.629C74.5271 208.263 74.8351 207.979 75.2032 207.993C75.5694 208.008 75.8548 208.319 75.8389 208.685C75.8254 209.004 74.6265 240.795 85.1515 266.156C85.2918 266.495 85.1312 266.883 84.7922 267.023C84.7229 267.052 84.6518 267.068 84.5808 267.073Z" fill="#00433B"/>
<path d="M87.1655 272.117C86.8467 272.138 86.5515 271.925 86.4764 271.603C82.6626 255.185 83.8823 241.51 85.5769 232.93C87.4174 223.611 90.1263 218.256 90.2408 218.033C90.408 217.706 90.8082 217.577 91.1347 217.744C91.4613 217.911 91.591 218.311 91.4238 218.637C91.3966 218.691 88.6715 224.09 86.8698 233.242C85.2086 241.684 84.017 255.14 87.7709 271.303C87.8537 271.66 87.6308 272.018 87.2736 272.101C87.2372 272.11 87.2014 272.115 87.1655 272.117Z" fill="#00433B"/>
<path d="M127.041 279.456C127.041 279.456 163.612 271.496 173.366 245.688C183.12 219.88 145.294 201.39 125.816 215.52C104.976 230.638 127.041 279.456 127.041 279.456Z" fill="#006C60"/>
<path d="M117.593 338.807C117.591 338.807 117.588 338.807 117.585 338.807C117.219 338.832 116.903 338.554 116.878 338.189C116.064 325.961 117.636 311.837 121.549 296.208C124.674 283.724 129.292 270.254 135.275 256.172C145.458 232.205 156.219 214.525 156.327 214.349C156.52 214.036 156.928 213.938 157.241 214.129C157.554 214.32 157.652 214.73 157.461 215.043C157.354 215.218 146.636 232.828 136.49 256.71C127.142 278.718 116.38 310.703 118.204 338.1C118.228 338.464 117.956 338.778 117.593 338.807Z" fill="#00433B"/>
<path d="M128.41 276.949C128.292 276.958 128.169 276.936 128.056 276.878C127.73 276.711 127.6 276.31 127.768 275.984C143.287 245.698 168.996 223.463 169.254 223.242C169.532 223.004 169.952 223.037 170.19 223.315C170.429 223.593 170.397 224.013 170.119 224.252C169.862 224.471 144.347 246.544 128.95 276.59C128.84 276.803 128.633 276.931 128.41 276.949Z" fill="#00433B"/>
<path d="M127.727 279.092C127.561 279.105 127.392 279.057 127.255 278.944C126.971 278.712 126.928 278.293 127.16 278.009C138.673 263.919 150.578 255.07 158.538 250.128C167.181 244.762 173.015 242.763 173.259 242.681C173.604 242.563 173.983 242.75 174.1 243.097C174.218 243.445 174.031 243.822 173.684 243.94C173.625 243.96 167.719 245.986 159.196 251.284C151.333 256.171 139.57 264.92 128.189 278.85C128.069 278.996 127.901 279.079 127.727 279.092Z" fill="#00433B"/>
<path d="M130.807 271.234C130.724 271.24 130.637 271.231 130.553 271.204C130.203 271.093 130.011 270.719 130.123 270.369C138.479 244.214 134.612 212.636 134.572 212.32C134.526 211.956 134.784 211.624 135.148 211.578C135.507 211.53 135.844 211.79 135.891 212.153C135.931 212.473 139.835 244.333 131.389 270.774C131.304 271.039 131.068 271.213 130.807 271.234Z" fill="#00433B"/>
<path d="M128.655 276.477C128.607 276.481 128.558 276.48 128.508 276.473C128.144 276.42 127.893 276.083 127.946 275.72C130.328 259.298 128.009 245.99 125.644 237.718C123.08 228.749 119.911 223.598 119.879 223.547C119.685 223.236 119.78 222.827 120.092 222.632C120.403 222.439 120.813 222.534 121.007 222.845C121.14 223.057 124.288 228.167 126.906 237.298C129.316 245.706 131.681 259.23 129.261 275.911C129.216 276.224 128.957 276.454 128.655 276.477Z" fill="#00433B"/>
<path d="M110.036 232.234C110.036 232.234 76.7807 215.063 74.0528 187.609C71.3249 160.155 112.651 152.105 127.799 170.803C144.005 190.808 110.036 232.234 110.036 232.234Z" fill="#006C60"/>
<path d="M112.569 302.972C112.519 302.977 112.466 302.976 112.414 302.968C112.05 302.919 111.796 302.585 111.845 302.221C115.075 278.388 110.963 241.565 106.945 214.87C102.589 185.922 97.401 162.327 97.349 162.092C97.2694 161.733 97.496 161.379 97.8545 161.299C98.2096 161.223 98.5671 161.447 98.6466 161.805C98.6986 162.04 103.896 185.681 108.26 214.672C112.29 241.453 116.412 278.41 113.161 302.399C113.118 302.711 112.868 302.942 112.569 302.972Z" fill="#00433B"/>
<path d="M109.65 229.493C109.318 229.526 109.007 229.305 108.936 228.971C101.857 195.96 82.9379 168.026 82.7478 167.748C82.5408 167.445 82.6187 167.032 82.9212 166.825C83.2237 166.617 83.6374 166.695 83.8443 166.998C84.0364 167.278 103.1 195.419 110.235 228.693C110.312 229.051 110.083 229.405 109.725 229.481C109.7 229.487 109.675 229.491 109.65 229.493Z" fill="#00433B"/>
<path d="M109.757 231.741C109.481 231.768 109.206 231.619 109.085 231.352C101.705 214.947 92.6135 203.446 86.2871 196.688C79.4293 189.362 74.2503 185.872 74.199 185.837C73.8942 185.634 73.8112 185.222 74.0146 184.917C74.2189 184.612 74.6312 184.529 74.936 184.732C75.1499 184.875 80.2656 188.319 87.2216 195.743C93.6281 202.58 102.831 214.213 110.297 230.807C110.447 231.141 110.298 231.535 109.964 231.685C109.896 231.716 109.826 231.734 109.757 231.741Z" fill="#00433B"/>
<path d="M108.819 223.352C108.807 223.353 108.796 223.355 108.784 223.355C108.418 223.372 108.107 223.088 108.09 222.722C106.788 194.997 118.82 165.237 118.942 164.939C119.081 164.6 119.47 164.438 119.809 164.576C120.149 164.715 120.312 165.103 120.172 165.442C120.052 165.737 108.128 195.233 109.417 222.66C109.433 223.015 109.168 223.318 108.819 223.352Z" fill="#00433B"/>
<path d="M109.538 228.974C109.492 228.979 109.443 228.978 109.394 228.972C109.03 228.929 108.769 228.599 108.813 228.234C110.8 211.497 116.604 198.955 121.123 191.381C126.029 183.156 130.406 178.954 130.59 178.779C130.855 178.527 131.276 178.537 131.529 178.803C131.782 179.068 131.771 179.489 131.506 179.742C131.462 179.783 127.052 184.024 122.236 192.108C117.794 199.565 112.09 211.912 110.132 228.392C110.095 228.707 109.842 228.945 109.538 228.974Z" fill="#00433B"/>
<path d="M149.989 295.824L148.603 307.637L148.374 309.597L147.714 315.212L147.486 317.172L146.809 322.937L146.58 324.894L141.602 367.363C122.591 369.77 104.847 369.62 88.1443 367.363L83.1655 324.894L82.9369 322.937L82.261 317.172L82.0315 315.212L81.3727 309.597L81.1432 307.637L79.7572 295.824H149.989Z" fill="#FF4F3F"/>
<path d="M148.603 307.637L148.374 309.597H81.3727L81.1432 307.637H148.603Z" fill="#CE101D"/>
<path d="M147.714 315.212L147.486 317.172H82.261L82.0315 315.212H147.714Z" fill="#CE101D"/>
<path d="M146.809 322.937L146.58 324.894H83.1655L82.9369 322.937H146.809Z" fill="#CE101D"/>
<path d="M146.129 343.467H83.6164L82.9369 338.375H146.809L146.129 343.467Z" fill="#3D2027"/>
<path d="M153.502 430.116H76.7261L75.8909 425.025H154.338L153.502 430.116Z" fill="#3D2027"/>
<path d="M87.7888 343.467L58.9375 521.812H62.8975L92.5516 343.467H87.7888Z" fill="#3D2027"/>
<path d="M142.016 343.467L170.868 521.812H166.908L137.254 343.467H142.016Z" fill="#3D2027"/>
<path d="M666.282 491.691L675.198 358.692H572.566L581.482 491.691H666.282Z" fill="#6D4744"/>
<path d="M674.343 371.204L573.818 376.995L573.097 366.457H674.667L674.343 371.204Z" fill="#3D2027"/>
<path d="M677.955 366.457H569.809C567.932 366.457 566.411 364.936 566.411 363.059V358.206C566.411 356.329 567.932 354.807 569.809 354.807H677.955C679.832 354.807 681.354 356.329 681.354 358.206V363.059C681.354 364.936 679.832 366.457 677.955 366.457Z" fill="#8A5C54"/>
<path d="M663.701 387.855L661.179 432.317H586.586L584.062 387.855H663.701Z" fill="#3D2027"/>
<path d="M627.605 411.921C627.605 413.977 625.938 415.643 623.882 415.643C621.825 415.643 620.159 413.977 620.159 411.921C620.159 409.864 621.825 408.198 623.882 408.198C625.938 408.198 627.605 409.864 627.605 411.921Z" fill="#6D4744"/>
<path d="M660.191 442.731L657.89 483.272H589.874L587.573 442.731H660.191Z" fill="#3D2027"/>
<path d="M627.605 464.475C627.605 466.531 625.938 468.198 623.882 468.198C621.825 468.198 620.159 466.531 620.159 464.475C620.159 462.418 621.825 460.752 623.882 460.752C625.938 460.752 627.605 462.418 627.605 464.475Z" fill="#6D4744"/>
<path d="M612.946 491.692C612.743 491.692 612.541 491.693 612.341 491.696C602.048 491.831 593.22 498.923 590.927 508.731L590.289 511.454H582.318L581.55 491.692H612.946Z" fill="#3D2027"/>
<path d="M634.844 491.692C635.047 491.692 635.249 491.693 635.449 491.696C645.742 491.831 654.57 498.923 656.863 508.731L657.5 511.454H665.438L666.239 491.692H634.844Z" fill="#3D2027"/>
<path d="M628.813 341.682V330.83C628.813 326.852 632.049 323.616 636.026 323.616H645.215C649.193 323.616 652.429 326.852 652.429 330.83V341.682C652.429 345.66 649.193 348.896 645.215 348.896H636.026C632.049 348.896 628.813 345.66 628.813 341.682ZM636.026 327.32C634.091 327.32 632.516 328.895 632.516 330.83V341.682C632.516 343.617 634.091 345.192 636.026 345.192H645.215C647.151 345.192 648.725 343.617 648.725 341.682V330.83C648.725 328.895 647.151 327.32 645.215 327.32H636.026Z" fill="#CE101D"/>
<path d="M637.106 355.04C646.087 355.553 655.068 355.553 664.049 355.04V318.159C655.068 317.534 646.087 317.534 637.106 318.159V355.04Z" fill="#FF4F3F"/>
<path d="M556.784 510.748C556.784 514.744 584.67 517.983 619.069 517.983C653.468 517.983 681.354 514.744 681.354 510.748C681.354 506.752 653.468 503.513 619.069 503.513C584.67 503.513 556.784 506.752 556.784 510.748Z" fill="#E5BF9E"/>
<path d="M642.021 312.845C643.796 311.444 652.411 304.129 651.604 294.638C651.408 292.35 649.158 290.382 646.43 288.317" stroke="#B9B9B9" stroke-width="1.8"/>
<path d="M655.409 312.845C657.284 311.444 666.382 304.129 665.529 294.638C665.323 292.35 662.947 290.382 660.065 288.317" stroke="#B9B9B9" stroke-width="1.84977"/>
<path d="M648.529 315.921C650.344 314.043 659.402 304.158 658.573 294.638C658.36 292.188 655.881 290.154 652.973 287.999" stroke="#B9B9B9" stroke-width="1.82105"/>
<path d="M719.114 166.692C719.114 184.751 704.473 199.391 686.414 199.391C668.354 199.391 653.713 184.751 653.713 166.692C653.713 148.632 668.354 133.992 686.414 133.992C704.473 133.992 719.114 148.632 719.114 166.692Z" fill="#E5BF9E"/>
<path d="M719.114 162.435C719.114 180.494 704.473 195.134 686.414 195.134C668.354 195.134 653.713 180.494 653.713 162.435C653.713 144.375 668.354 129.735 686.414 129.735C704.473 129.735 719.114 144.375 719.114 162.435Z" fill="#FF4F3F"/>
<path d="M686.414 189.018C671.756 189.018 659.83 177.093 659.83 162.435C659.83 147.776 671.756 135.85 686.414 135.85C701.072 135.85 712.997 147.776 712.997 162.435C712.997 177.093 701.072 189.018 686.414 189.018Z" fill="white"/>
<path d="M712.998 162.435C712.998 163.143 712.969 163.843 712.915 164.535C711.841 150.854 700.363 140.05 686.414 140.05C672.462 140.05 660.987 150.854 659.912 164.535C659.858 163.843 659.83 163.143 659.83 162.435C659.83 147.774 671.754 135.851 686.414 135.851C701.071 135.851 712.998 147.774 712.998 162.435Z" fill="#F1D5B8"/>
<mask id="mask1_1_1559" style="mask-type:luminance" maskUnits="userSpaceOnUse" x="672" y="161" width="17" height="17">
<path d="M675.232 177.656C676.949 178.49 688.099 167.367 688.099 167.367C688.099 167.367 687.391 161.54 686.679 161.548C685.968 161.557 679.529 167.715 675.052 171.289C670.575 174.863 673.515 176.822 675.232 177.656Z" fill="white"/>
</mask>
<g mask="url(#mask1_1_1559)">
<path d="M687.28 163.431C687.474 163.364 687.694 163.388 687.872 163.51L705.94 175.834C706.243 176.041 706.322 176.455 706.115 176.758C705.909 177.062 705.495 177.14 705.191 176.933L687.561 164.907L675.971 175.638C675.702 175.887 675.282 175.871 675.032 175.601C674.782 175.331 674.798 174.911 675.068 174.661L687.046 163.571C687.115 163.507 687.195 163.461 687.28 163.431Z" fill="#270A04"/>
</g>
<mask id="mask2_1_1559" style="mask-type:luminance" maskUnits="userSpaceOnUse" x="660" y="154" width="29" height="14">
<path d="M660.711 159.005C658.816 158.779 688.93 167.579 688.93 167.579C688.93 167.579 685.318 162.261 685.482 161.56C686.152 161.319 672.684 158.03 668.139 155.165C663.294 152.11 662.607 159.232 660.711 159.005Z" fill="white"/>
</mask>
<g mask="url(#mask2_1_1559)">
<path d="M687.019 164.708C686.858 164.835 686.642 164.884 686.434 164.827L665.328 159.093C664.974 158.997 664.764 158.632 664.86 158.278C664.956 157.923 665.321 157.713 665.676 157.81L686.271 163.405L693.711 149.474C693.884 149.15 694.287 149.028 694.611 149.201C694.935 149.374 695.058 149.776 694.885 150.101L687.195 164.499C687.15 164.582 687.09 164.652 687.019 164.708Z" fill="#270A04"/>
</g>
<path d="M620.542 110.808H502.048V196.51C502.048 199.198 504.226 201.375 506.913 201.375H615.677C618.364 201.375 620.542 199.198 620.542 196.51V110.808Z" fill="white"/>
<path d="M620.542 108.707V118.902H502.152V108.707C502.152 105.968 504.373 103.747 507.112 103.747H615.582C618.322 103.747 620.542 105.968 620.542 108.707Z" fill="#270A04"/>
<path d="M600.121 110.594C600.121 112.056 598.936 113.241 597.473 113.241C596.011 113.241 594.826 112.056 594.826 110.594C594.826 109.132 596.011 107.947 597.473 107.947C598.936 107.947 600.121 109.132 600.121 110.594Z" fill="white"/>
<path d="M608.702 110.594C608.702 112.056 607.516 113.241 606.055 113.241C604.593 113.241 603.407 112.056 603.407 110.594C603.407 109.132 604.593 107.947 606.055 107.947C607.516 107.947 608.702 109.132 608.702 110.594Z" fill="#8A519D"/>
<path d="M616.918 110.594C616.918 112.056 615.733 113.241 614.271 113.241C612.808 113.241 611.623 112.056 611.623 110.594C611.623 109.132 612.808 107.947 614.271 107.947C615.733 107.947 616.918 109.132 616.918 110.594Z" fill="#C78FE8"/>
<path d="M583.961 136.39H577.522V129.952H583.961V136.39Z" fill="#8A519D"/>
<path d="M583.961 147.863H577.522V141.423H583.961V147.863Z" fill="#C78FE8"/>
<path d="M563.96 157.166C563.96 170.408 553.227 181.138 539.989 181.138C526.748 181.138 516.015 170.408 516.015 157.166C516.015 153.884 516.677 150.753 517.872 147.901L539.989 157.166L538.854 133.225C539.225 133.202 539.607 133.195 539.989 133.195C553.227 133.195 563.96 143.928 563.96 157.166Z" fill="#C78FE8"/>
<path d="M538.937 133.495C531.774 133.826 525.436 137.302 521.266 142.573C519.924 144.268 518.807 146.149 517.958 148.173L540.073 157.438L538.937 133.495Z" fill="#8A519D"/>
<path d="M609.652 141.927L590.224 141.93C589.125 141.93 588.235 142.742 588.235 143.743C588.235 144.745 589.125 145.556 590.224 145.556L609.652 145.554C610.751 145.554 611.641 144.743 611.641 143.741C611.641 142.739 610.751 141.927 609.652 141.927Z" fill="#F0D2FF"/>
<path d="M598.95 130.443L590.224 130.458C589.125 130.458 588.235 131.27 588.235 132.271C588.235 133.273 589.125 134.084 590.224 134.084L598.95 134.069C600.049 134.069 600.939 133.258 600.939 132.256C600.939 131.255 600.049 130.443 598.95 130.443Z" fill="#F0D2FF"/>
<path d="M577.623 179.323C577.623 180.325 578.435 181.137 579.436 181.137L610.659 181.137C611.661 181.137 612.472 180.325 612.472 179.323C612.472 178.322 611.661 177.51 610.659 177.51L579.436 177.51C578.435 177.51 577.623 178.322 577.623 179.323Z" fill="#F0D2FF"/>
<path d="M577.589 172.038C577.589 173.04 578.4 173.852 579.402 173.852L597.159 173.862C598.161 173.862 598.972 173.05 598.972 172.049C598.972 171.047 598.161 170.236 597.159 170.236L579.402 170.226C578.4 170.226 577.589 171.037 577.589 172.038Z" fill="#F0D2FF"/>
<path d="M577.555 164.754C577.555 165.755 578.366 166.566 579.368 166.566L575.844 166.563C576.846 166.563 577.656 165.751 577.656 164.75C577.656 163.75 576.846 162.938 575.844 162.938L579.368 162.94C578.366 162.94 577.555 163.753 577.555 164.754Z" fill="#F0D2FF"/>
<path d="M577.522 157.468C577.522 158.469 578.334 159.282 579.335 159.282L593.896 159.294C594.898 159.294 595.709 158.481 595.709 157.48C595.709 156.479 594.898 155.668 593.896 155.668L579.335 155.656C578.334 155.656 577.522 156.467 577.522 157.468Z" fill="#F0D2FF"/>
<path d="M463.661 139.246H433.764C432.118 139.246 430.784 137.911 430.784 136.265V106.369C430.784 104.723 432.118 103.388 433.764 103.388H463.661C465.307 103.388 466.642 104.723 466.642 106.369V136.265C466.642 137.911 465.307 139.246 463.661 139.246Z" fill="#8A519D"/>
<path d="M460.171 120.639C460.171 125.11 457.666 127.428 454.67 127.428C452.915 127.428 451.627 126.748 450.972 125.391C450.317 126.679 449.194 127.428 447.413 127.428C444.886 127.428 442.453 125.203 442.453 121.599C442.453 117.993 444.815 115.794 447.413 115.794C448.655 115.794 449.615 116.193 450.293 116.941V116.004H454.788V122.699C454.788 123.682 455.186 123.986 455.701 123.986C456.357 123.986 456.894 123.33 456.894 120.71C456.894 116.472 453.734 113.476 448.912 113.476C444.115 113.476 440.884 116.846 440.884 121.295C440.884 125.883 444.044 129.158 448.818 129.158C450.364 129.158 451.956 128.856 453.547 128.129L454.531 131.009C453.126 131.688 450.902 132.132 448.818 132.132C441.772 132.132 437.255 127.428 437.255 121.295C437.255 115.255 441.772 110.503 448.912 110.503C455.654 110.503 460.171 115.02 460.171 120.639ZM450.387 121.599C450.387 120.195 449.661 119.469 448.702 119.469C447.742 119.469 447.04 120.195 447.04 121.599C447.04 123.026 447.742 123.751 448.702 123.751C449.661 123.751 450.387 123.026 450.387 121.599Z" fill="white"/>
<mask id="mask3_1_1559" style="mask-type:alpha" maskUnits="userSpaceOnUse" x="425" y="97" width="42" height="37">
<path d="M466.229 100.676C458.258 100.804 429.215 101.873 428.629 102.263C428.139 102.59 428.182 122.198 428.501 133.019" stroke="#B9B9B9" stroke-width="5.4"/>
</mask>
<g mask="url(#mask3_1_1559)">
<path d="M463.661 142.523C463.425 142.523 463.228 142.331 463.228 142.095C463.228 141.86 463.415 141.668 463.65 141.668C464.376 141.668 465.07 141.531 465.725 141.259C465.944 141.168 466.193 141.272 466.283 141.49C466.374 141.708 466.27 141.958 466.052 142.049C465.293 142.364 464.488 142.523 463.661 142.523ZM461.353 142.523H459.056C458.82 142.523 458.628 142.331 458.628 142.095C458.628 141.86 458.82 141.668 459.056 141.668H461.353C461.588 141.668 461.78 141.86 461.78 142.095C461.78 142.331 461.588 142.523 461.353 142.523ZM456.759 142.523H454.461C454.226 142.523 454.034 142.331 454.034 142.095C454.034 141.86 454.226 141.668 454.461 141.668H456.759C456.995 141.668 457.187 141.86 457.187 142.095C457.187 142.331 456.995 142.523 456.759 142.523ZM452.165 142.523H449.868C449.632 142.523 449.44 142.331 449.44 142.095C449.44 141.86 449.632 141.668 449.868 141.668H452.165C452.4 141.668 452.592 141.86 452.592 142.095C452.592 142.331 452.4 142.523 452.165 142.523ZM447.571 142.523H445.273C445.037 142.523 444.846 142.331 444.846 142.095C444.846 141.86 445.037 141.668 445.273 141.668H447.571C447.807 141.668 447.998 141.86 447.998 142.095C447.998 142.331 447.807 142.523 447.571 142.523ZM442.976 142.523H440.68C440.444 142.523 440.252 142.331 440.252 142.095C440.252 141.86 440.444 141.668 440.68 141.668H442.976C443.212 141.668 443.404 141.86 443.404 142.095C443.404 142.331 443.212 142.523 442.976 142.523ZM438.382 142.523H436.085C435.849 142.523 435.658 142.331 435.658 142.095C435.658 141.86 435.849 141.668 436.085 141.668H438.382C438.618 141.668 438.809 141.86 438.809 142.095C438.809 142.331 438.618 142.523 438.382 142.523ZM433.788 142.523H433.764C432.933 142.523 432.125 142.362 431.362 142.044C431.144 141.953 431.041 141.703 431.132 141.485C431.222 141.267 431.474 141.163 431.691 141.255C432.349 141.529 433.047 141.668 433.764 141.668C434 141.668 434.203 141.86 434.203 142.095C434.203 142.331 434.024 142.523 433.788 142.523ZM467.784 140.811C467.674 140.811 467.565 140.77 467.482 140.686C467.314 140.52 467.315 140.249 467.482 140.081C467.989 139.574 468.384 138.982 468.657 138.323C468.747 138.105 468.996 138.001 469.215 138.091C469.433 138.181 469.537 138.432 469.446 138.649C469.13 139.413 468.673 140.098 468.086 140.686C468.003 140.77 467.893 140.811 467.784 140.811ZM429.633 140.803C429.523 140.803 429.413 140.761 429.33 140.677C428.744 140.088 428.288 139.403 427.973 138.639C427.883 138.42 427.988 138.171 428.207 138.081C428.425 137.991 428.675 138.096 428.765 138.314C429.035 138.973 429.431 139.566 429.936 140.074C430.103 140.241 430.102 140.512 429.935 140.679C429.852 140.762 429.742 140.803 429.633 140.803ZM469.491 136.675C469.256 136.675 469.064 136.483 469.064 136.247V133.95C469.064 133.715 469.256 133.523 469.491 133.523C469.727 133.523 469.919 133.715 469.919 133.95V136.247C469.919 136.483 469.727 136.675 469.491 136.675ZM427.934 136.664C427.698 136.664 427.506 136.472 427.506 136.236V133.94C427.506 133.704 427.698 133.512 427.934 133.512C428.17 133.512 428.361 133.704 428.361 133.94V136.236C428.361 136.472 428.17 136.664 427.934 136.664ZM469.491 132.081C469.256 132.081 469.064 131.889 469.064 131.654V129.356C469.064 129.12 469.256 128.929 469.491 128.929C469.727 128.929 469.919 129.12 469.919 129.356V131.654C469.919 131.889 469.727 132.081 469.491 132.081ZM427.934 132.069C427.698 132.069 427.506 131.878 427.506 131.642V129.345C427.506 129.109 427.698 128.918 427.934 128.918C428.17 128.918 428.361 129.109 428.361 129.345V131.642C428.361 131.878 428.17 132.069 427.934 132.069ZM469.491 127.487C469.256 127.487 469.064 127.295 469.064 127.059V124.762C469.064 124.527 469.256 124.335 469.491 124.335C469.727 124.335 469.919 124.527 469.919 124.762V127.059C469.919 127.295 469.727 127.487 469.491 127.487ZM427.934 127.476C427.698 127.476 427.506 127.284 427.506 127.048V124.752C427.506 124.516 427.698 124.324 427.934 124.324C428.17 124.324 428.361 124.516 428.361 124.752V127.048C428.361 127.284 428.17 127.476 427.934 127.476ZM469.491 122.892C469.256 122.892 469.064 122.7 469.064 122.465V120.168C469.064 119.932 469.256 119.74 469.491 119.74C469.727 119.74 469.919 119.932 469.919 120.168V122.465C469.919 122.7 469.727 122.892 469.491 122.892ZM427.934 122.881C427.698 122.881 427.506 122.69 427.506 122.454V120.157C427.506 119.921 427.698 119.73 427.934 119.73C428.17 119.73 428.361 119.921 428.361 120.157V122.454C428.361 122.69 428.17 122.881 427.934 122.881ZM469.491 118.299C469.256 118.299 469.064 118.107 469.064 117.871V115.574C469.064 115.338 469.256 115.147 469.491 115.147C469.727 115.147 469.919 115.338 469.919 115.574V117.871C469.919 118.107 469.727 118.299 469.491 118.299ZM427.934 118.288C427.698 118.288 427.506 118.096 427.506 117.86V115.563C427.506 115.327 427.698 115.135 427.934 115.135C428.17 115.135 428.361 115.327 428.361 115.563V117.86C428.361 118.096 428.17 118.288 427.934 118.288ZM469.491 113.704C469.256 113.704 469.064 113.512 469.064 113.277V110.98C469.064 110.744 469.256 110.552 469.491 110.552C469.727 110.552 469.919 110.744 469.919 110.98V113.277C469.919 113.512 469.727 113.704 469.491 113.704ZM427.934 113.693C427.698 113.693 427.506 113.502 427.506 113.266V110.969C427.506 110.733 427.698 110.541 427.934 110.541C428.17 110.541 428.361 110.733 428.361 110.969V113.266C428.361 113.502 428.17 113.693 427.934 113.693ZM469.491 109.11C469.256 109.11 469.064 108.919 469.064 108.683V106.385C469.064 106.149 469.256 105.959 469.491 105.959C469.727 105.959 469.919 106.149 469.919 106.385V108.683C469.919 108.919 469.727 109.11 469.491 109.11ZM427.934 109.099C427.698 109.099 427.506 108.907 427.506 108.671V106.374C427.506 106.139 427.698 105.947 427.934 105.947C428.17 105.947 428.361 106.139 428.361 106.374V108.671C428.361 108.907 428.17 109.099 427.934 109.099ZM469.052 104.574C468.885 104.574 468.725 104.476 468.657 104.311C468.384 103.651 467.988 103.06 467.481 102.552C467.314 102.385 467.314 102.114 467.482 101.947C467.649 101.781 467.919 101.781 468.086 101.948C468.673 102.535 469.13 103.22 469.446 103.983C469.536 104.201 469.433 104.452 469.215 104.542C469.162 104.565 469.106 104.574 469.052 104.574ZM428.378 104.565C428.323 104.565 428.268 104.554 428.214 104.531C427.996 104.44 427.892 104.19 427.983 103.972C428.3 103.209 428.76 102.525 429.349 101.939C429.516 101.773 429.786 101.773 429.953 101.94C430.119 102.108 430.119 102.378 429.952 102.545C429.443 103.052 429.047 103.642 428.773 104.301C428.704 104.465 428.545 104.565 428.378 104.565ZM465.887 101.408C465.833 101.408 465.777 101.397 465.724 101.375C465.069 101.103 464.375 100.966 463.661 100.966C463.425 100.966 463.227 100.775 463.227 100.539C463.227 100.303 463.414 100.111 463.649 100.111H463.661C464.488 100.111 465.293 100.271 466.052 100.586C466.27 100.676 466.374 100.927 466.283 101.145C466.214 101.309 466.055 101.408 465.887 101.408ZM431.548 101.404C431.38 101.404 431.221 101.304 431.153 101.139C431.063 100.921 431.168 100.671 431.385 100.581C432.141 100.27 432.941 100.111 433.764 100.111C434 100.111 434.203 100.303 434.203 100.539C434.203 100.775 434.023 100.966 433.787 100.966C433.054 100.966 432.363 101.102 431.711 101.371C431.658 101.393 431.602 101.404 431.548 101.404ZM461.352 100.966H459.055C458.819 100.966 458.627 100.775 458.627 100.539C458.627 100.303 458.819 100.111 459.055 100.111H461.352C461.588 100.111 461.779 100.303 461.779 100.539C461.779 100.775 461.588 100.966 461.352 100.966ZM456.758 100.966H454.46C454.225 100.966 454.034 100.775 454.034 100.539C454.034 100.303 454.225 100.111 454.46 100.111H456.758C456.994 100.111 457.186 100.303 457.186 100.539C457.186 100.775 456.994 100.966 456.758 100.966ZM452.164 100.966H449.867C449.631 100.966 449.439 100.775 449.439 100.539C449.439 100.303 449.631 100.111 449.867 100.111H452.164C452.399 100.111 452.591 100.303 452.591 100.539C452.591 100.775 452.399 100.966 452.164 100.966ZM447.57 100.966H445.272C445.037 100.966 444.845 100.775 444.845 100.539C444.845 100.303 445.037 100.111 445.272 100.111H447.57C447.806 100.111 447.998 100.303 447.998 100.539C447.998 100.775 447.806 100.966 447.57 100.966ZM442.976 100.966H440.679C440.443 100.966 440.251 100.775 440.251 100.539C440.251 100.303 440.443 100.111 440.679 100.111H442.976C443.211 100.111 443.403 100.303 443.403 100.539C443.403 100.775 443.211 100.966 442.976 100.966ZM438.381 100.966H436.084C435.848 100.966 435.657 100.775 435.657 100.539C435.657 100.303 435.848 100.111 436.084 100.111H438.381C438.617 100.111 438.809 100.303 438.809 100.539C438.809 100.775 438.617 100.966 438.381 100.966Z" fill="#8A519D"/>
</g>
<path d="M361 108.631L349.691 108.67C348.403 108.675 347.361 109.723 347.366 111.011L347.47 141.322C347.477 143.323 349.106 144.94 351.106 144.933L390.766 144.795C391.976 144.791 392.954 143.806 392.95 142.596L392.853 114.366C392.849 113.317 391.996 112.47 390.947 112.474L367.814 112.554L361 108.631Z" fill="#4E1E61"/>
<path d="M392.95 142.596L392.882 122.99L347.407 123.148L347.476 142.753C347.48 143.964 348.465 144.942 349.675 144.938L390.766 144.795C391.976 144.791 392.954 143.806 392.95 142.596Z" fill="#8A519D"/>
<path d="M349.926 120.378L349.936 123.139L390.214 122.999L390.204 120.239C390.199 118.624 388.885 117.319 387.27 117.325L352.841 117.444C351.226 117.449 349.921 118.763 349.926 120.378Z" fill="white"/>
<path d="M386.791 120.277L386.8 123.011L385.034 123.017L385.024 120.282C385.022 119.796 385.419 119.398 385.905 119.397C386.391 119.395 386.789 119.791 386.791 120.277Z" fill="#F0D2FF"/>
<path d="M382.804 120.29L382.814 123.025L381.048 123.032L381.038 120.297C381.036 119.811 381.432 119.412 381.918 119.41C382.404 119.408 382.803 119.804 382.804 120.29Z" fill="#F0D2FF"/>
<path d="M378.818 120.304L378.827 123.039L377.061 123.045L377.052 120.31C377.05 119.824 377.446 119.425 377.932 119.424C378.418 119.422 378.816 119.818 378.818 120.304Z" fill="#F0D2FF"/>
<path d="M374.831 120.318L374.841 123.052L373.074 123.059L373.064 120.324C373.063 119.838 373.459 119.439 373.945 119.437C374.431 119.435 374.829 119.832 374.831 120.318Z" fill="#F0D2FF"/>
<path d="M370.845 120.332L370.855 123.067L369.087 123.072L369.078 120.338C369.077 119.852 369.473 119.453 369.959 119.451C370.445 119.45 370.843 119.846 370.845 120.332Z" fill="#F0D2FF"/>
<path d="M366.858 120.345L366.868 123.08L365.101 123.087L365.091 120.352C365.09 119.865 365.487 119.467 365.973 119.465C366.459 119.463 366.856 119.859 366.858 120.345Z" fill="#F0D2FF"/>
<path d="M362.872 120.36L362.882 123.094L361.114 123.1L361.105 120.366C361.104 119.88 361.5 119.481 361.986 119.479C362.472 119.478 362.87 119.874 362.872 120.36Z" fill="#F0D2FF"/>
<path d="M358.886 120.373L358.895 123.107L357.128 123.114L357.118 120.379C357.116 119.893 357.513 119.495 357.999 119.493C358.485 119.491 358.884 119.887 358.886 120.373Z" fill="#F0D2FF"/>
<path d="M354.899 120.387L354.909 123.122L353.142 123.128L353.132 120.393C353.13 119.907 353.526 119.508 354.012 119.506C354.498 119.505 354.897 119.901 354.899 120.387Z" fill="#F0D2FF"/>
<path d="M401.247 112.341C401.247 118.001 396.659 122.589 391 122.589C385.34 122.589 380.752 118.001 380.752 112.341C380.752 106.682 385.34 102.094 391 102.094C396.659 102.094 401.247 106.682 401.247 112.341Z" fill="#C78FE8"/>
<mask id="mask4_1_1559" style="mask-type:alpha" maskUnits="userSpaceOnUse" x="383" y="105" width="17" height="16">
<path d="M385.879 112.838L389.029 116.213L397.354 107.888" stroke="#B9B9B9" stroke-width="5.4"/>
</mask>
<g mask="url(#mask4_1_1559)">
<path d="M388.9 117.211C388.636 117.211 388.383 117.105 388.197 116.919L385.686 114.408C385.298 114.02 385.298 113.39 385.686 113.002C386.074 112.614 386.704 112.614 387.092 113.002L388.9 114.811L395.947 107.763C396.335 107.375 396.965 107.375 397.353 107.763C397.741 108.151 397.741 108.781 397.353 109.169L389.603 116.919C389.417 117.105 389.164 117.211 388.9 117.211Z" fill="white"/>
</g>
<path d="M534.118 230.535V313.319C534.118 317.769 537.726 321.378 542.176 321.378H607.738C612.188 321.378 615.796 317.769 615.796 313.319V230.535H534.118Z" fill="white"/>
<path d="M615.796 227.481V238.653H534.118V227.481C534.118 225.256 535.921 223.453 538.146 223.453H611.767C613.992 223.453 615.796 225.256 615.796 227.481Z" fill="#270A04"/>
<path d="M596.017 230.32C596.017 231.787 594.828 232.976 593.362 232.976C591.896 232.976 590.706 231.787 590.706 230.32C590.706 228.854 591.896 227.665 593.362 227.665C594.828 227.665 596.017 228.854 596.017 230.32Z" fill="white"/>
<path d="M604.625 230.32C604.625 231.787 603.437 232.976 601.97 232.976C600.503 232.976 599.314 231.787 599.314 230.32C599.314 228.854 600.503 227.665 601.97 227.665C603.437 227.665 604.625 228.854 604.625 230.32Z" fill="#8A519D"/>
<path d="M612.866 230.32C612.866 231.787 611.677 232.976 610.21 232.976C608.744 232.976 607.555 231.787 607.555 230.32C607.555 228.854 608.744 227.665 610.21 227.665C611.677 227.665 612.866 228.854 612.866 230.32Z" fill="#C78FE8"/>
<path d="M561.622 311.342H553.681L553.686 296.734H561.626L561.622 311.342Z" fill="#C78FE8"/>
<path d="M573.335 311.341H565.394L565.427 311.577H573.368L573.335 311.341Z" fill="#8A519D"/>
<path d="M586.307 311.342H578.365L578.352 280.422H586.294L586.307 311.342Z" fill="#4E1E61"/>
<path d="M599.013 311.341H591.071L591.086 269.819H599.027L599.013 311.341Z" fill="#8A519D"/>
<path d="M348.107 206.079H319.476C317.633 206.079 316.14 204.586 316.14 202.744V174.112C316.14 172.27 317.633 170.777 319.476 170.777H348.107C349.95 170.777 351.444 172.27 351.444 174.112V202.744C351.444 204.586 349.95 206.079 348.107 206.079Z" fill="#C78FE8"/>
<path d="M343.778 181.16C343.72 180.916 343.663 180.672 343.603 180.429C343.39 179.572 342.982 178.816 342.403 178.148C341.989 177.669 341.51 177.262 340.969 176.952C340.222 176.522 339.377 176.705 338.826 177.37C337.841 178.557 336.861 179.749 335.89 180.947C335.293 181.683 335.391 182.689 336.13 183.344C336.659 183.813 337.218 184.249 337.766 184.697C337.836 184.755 337.919 184.798 337.979 184.837C336.674 188.347 334.461 191.058 331.283 193.011C330.898 192.691 330.494 192.354 330.09 192.019C329.883 191.848 329.678 191.675 329.465 191.512C328.826 191.023 328.087 190.974 327.423 191.407C327.213 191.544 327.039 191.749 326.877 191.944C325.988 193.018 325.112 194.102 324.221 195.174C323.938 195.514 323.759 195.889 323.697 196.324C323.713 196.483 323.729 196.643 323.744 196.802C323.899 197.071 324.005 197.389 324.218 197.6C324.739 198.119 325.312 198.582 325.994 198.89C326.794 199.25 327.63 199.471 328.505 199.394C329.081 199.344 329.658 199.221 330.217 199.066C331.655 198.664 332.965 197.978 334.197 197.147C335.417 196.323 336.529 195.367 337.55 194.307C338.929 192.877 340.152 191.319 341.261 189.672C342.136 188.374 342.891 187.015 343.381 185.521C343.627 184.768 343.793 184 343.845 183.208C343.866 182.891 343.873 182.571 343.886 182.253C343.85 181.888 343.814 181.525 343.778 181.16Z" fill="white"/>
<mask id="mask5_1_1559" style="mask-type:alpha" maskUnits="userSpaceOnUse" x="309" y="167" width="45" height="46">
<path d="M314.554 167.963C314.554 171.113 311.404 206.663 315.004 208.463C318.119 210.021 345.166 209.219 352.679 207.517" stroke="#B9B9B9" stroke-width="7.2"/>
</mask>
<g mask="url(#mask5_1_1559)">
<path d="M348.108 210.674H346.722C346.405 210.674 346.147 210.415 346.147 210.099C346.147 209.782 346.405 209.524 346.722 209.524H348.108C348.298 209.524 348.491 209.516 348.679 209.501C348.995 209.476 349.272 209.71 349.299 210.026C349.325 210.342 349.09 210.619 348.774 210.646C348.554 210.664 348.33 210.674 348.108 210.674ZM343.857 210.674H341.852C341.535 210.674 341.277 210.415 341.277 210.099C341.277 209.782 341.535 209.524 341.852 209.524H343.857C344.174 209.524 344.431 209.782 344.431 210.099C344.431 210.415 344.174 210.674 343.857 210.674ZM338.987 210.674H336.982C336.665 210.674 336.407 210.415 336.407 210.099C336.407 209.782 336.665 209.524 336.982 209.524H338.987C339.304 209.524 339.561 209.782 339.561 210.099C339.561 210.415 339.304 210.674 338.987 210.674ZM334.117 210.674H332.111C331.794 210.674 331.537 210.415 331.537 210.099C331.537 209.782 331.794 209.524 332.111 209.524H334.117C334.434 209.524 334.691 209.782 334.691 210.099C334.691 210.415 334.434 210.674 334.117 210.674ZM329.246 210.674H327.241C326.924 210.674 326.667 210.415 326.667 210.099C326.667 209.782 326.924 209.524 327.241 209.524H329.246C329.563 209.524 329.82 209.782 329.82 210.099C329.82 210.415 329.563 210.674 329.246 210.674ZM324.376 210.674H322.371C322.054 210.674 321.797 210.415 321.797 210.099C321.797 209.782 322.054 209.524 322.371 209.524H324.376C324.693 209.524 324.951 209.782 324.951 210.099C324.951 210.415 324.693 210.674 324.376 210.674ZM319.505 210.674H319.476C318.752 210.674 318.034 210.575 317.342 210.381C317.036 210.296 316.858 209.98 316.943 209.674C317.029 209.369 317.345 209.19 317.651 209.275C318.243 209.441 318.857 209.524 319.476 209.524H319.505C319.822 209.524 320.08 209.782 320.08 210.099C320.08 210.415 319.822 210.674 319.505 210.674ZM351.462 209.863C351.253 209.863 351.053 209.749 350.952 209.551C350.807 209.27 350.917 208.923 351.199 208.778C351.747 208.497 352.255 208.14 352.708 207.72C352.941 207.505 353.304 207.519 353.52 207.752C353.735 207.985 353.721 208.348 353.489 208.563C352.959 209.054 352.365 209.47 351.725 209.799C351.641 209.842 351.55 209.863 351.462 209.863ZM314.956 209.118C314.833 209.118 314.708 209.078 314.603 208.996C314.034 208.552 313.529 208.032 313.1 207.453C312.912 207.199 312.965 206.838 313.22 206.65C313.475 206.461 313.835 206.516 314.024 206.77C314.39 207.266 314.824 207.71 315.311 208.091C315.561 208.286 315.605 208.646 315.41 208.896C315.296 209.041 315.126 209.118 314.956 209.118ZM354.777 206.418C354.696 206.418 354.613 206.401 354.534 206.364C354.247 206.229 354.123 205.887 354.257 205.6C354.518 205.042 354.7 204.449 354.8 203.841C354.851 203.528 355.145 203.315 355.46 203.367C355.773 203.418 355.985 203.712 355.934 204.025C355.818 204.738 355.603 205.432 355.298 206.086C355.2 206.295 354.993 206.418 354.777 206.418ZM312.342 205.114C312.085 205.114 311.851 204.941 311.785 204.681C311.627 204.051 311.546 203.399 311.546 202.744V202.554C311.546 202.237 311.804 201.979 312.121 201.979C312.438 201.979 312.695 202.237 312.695 202.554V202.744C312.695 203.304 312.764 203.862 312.9 204.4C312.977 204.707 312.79 205.019 312.483 205.096C312.436 205.108 312.388 205.114 312.342 205.114ZM355.463 201.649C355.146 201.649 354.889 201.39 354.889 201.073V199.068C354.889 198.751 355.146 198.494 355.463 198.494C355.78 198.494 356.037 198.751 356.037 199.068V201.073C356.037 201.39 355.78 201.649 355.463 201.649ZM312.121 200.262C311.804 200.262 311.546 200.005 311.546 199.688V197.683C311.546 197.366 311.804 197.109 312.121 197.109C312.438 197.109 312.695 197.366 312.695 197.683V199.688C312.695 200.005 312.438 200.262 312.121 200.262ZM355.463 196.778C355.146 196.778 354.889 196.52 354.889 196.203V194.198C354.889 193.881 355.146 193.624 355.463 193.624C355.78 193.624 356.037 193.881 356.037 194.198V196.203C356.037 196.52 355.78 196.778 355.463 196.778ZM312.121 195.393C311.804 195.393 311.546 195.135 311.546 194.818V192.813C311.546 192.496 311.804 192.239 312.121 192.239C312.438 192.239 312.695 192.496 312.695 192.813V194.818C312.695 195.135 312.438 195.393 312.121 195.393ZM355.463 191.908C355.146 191.908 354.889 191.65 354.889 191.334V189.328C354.889 189.012 355.146 188.753 355.463 188.753C355.78 188.753 356.037 189.012 356.037 189.328V191.334C356.037 191.65 355.78 191.908 355.463 191.908ZM312.121 190.523C311.804 190.523 311.546 190.265 311.546 189.949V187.942C311.546 187.626 311.804 187.368 312.121 187.368C312.438 187.368 312.695 187.626 312.695 187.942V189.949C312.695 190.265 312.438 190.523 312.121 190.523ZM355.463 187.037C355.146 187.037 354.889 186.78 354.889 186.463V184.458C354.889 184.141 355.146 183.883 355.463 183.883C355.78 183.883 356.037 184.141 356.037 184.458V186.463C356.037 186.78 355.78 187.037 355.463 187.037ZM312.121 185.652C311.804 185.652 311.546 185.395 311.546 185.078V183.073C311.546 182.756 311.804 182.498 312.121 182.498C312.438 182.498 312.695 182.756 312.695 183.073V185.078C312.695 185.395 312.438 185.652 312.121 185.652ZM355.463 182.167C355.146 182.167 354.889 181.91 354.889 181.593V179.588C354.889 179.271 355.146 179.013 355.463 179.013C355.78 179.013 356.037 179.271 356.037 179.588V181.593C356.037 181.91 355.78 182.167 355.463 182.167ZM312.121 180.782C311.804 180.782 311.546 180.525 311.546 180.208V178.202C311.546 177.885 311.804 177.628 312.121 177.628C312.438 177.628 312.695 177.885 312.695 178.202V180.208C312.695 180.525 312.438 180.782 312.121 180.782ZM355.463 177.296C355.146 177.296 354.889 177.04 354.889 176.723V174.717C354.889 174.4 355.146 174.143 355.463 174.143C355.78 174.143 356.037 174.4 356.037 174.717V176.723C356.037 177.04 355.78 177.296 355.463 177.296ZM312.121 175.911C311.804 175.911 311.546 175.654 311.546 175.337V174.112C311.546 173.831 311.561 173.549 311.59 173.273C311.623 172.958 311.906 172.729 312.222 172.763C312.538 172.796 312.766 173.079 312.733 173.395C312.708 173.63 312.695 173.872 312.695 174.112V175.337C312.695 175.654 312.438 175.911 312.121 175.911ZM355.119 172.463C354.876 172.463 354.65 172.308 354.572 172.063C354.386 171.476 354.12 170.916 353.78 170.4C353.606 170.135 353.68 169.779 353.945 169.605C354.21 169.43 354.565 169.505 354.74 169.77C355.136 170.374 355.449 171.028 355.667 171.715C355.763 172.017 355.596 172.339 355.293 172.435C355.235 172.454 355.177 172.463 355.119 172.463ZM313.005 171.191C312.912 171.191 312.819 171.167 312.732 171.121C312.453 170.969 312.35 170.621 312.501 170.342C312.845 169.708 313.273 169.124 313.775 168.605C313.997 168.376 314.358 168.371 314.587 168.592C314.815 168.812 314.821 169.176 314.601 169.403C314.171 169.848 313.805 170.348 313.511 170.89C313.406 171.082 313.209 171.191 313.005 171.191ZM352.268 168.625C352.157 168.625 352.042 168.592 351.943 168.523C351.434 168.172 350.88 167.894 350.298 167.694C349.998 167.592 349.838 167.264 349.941 166.964C350.043 166.664 350.369 166.504 350.67 166.607C351.352 166.84 351.999 167.167 352.595 167.577C352.856 167.757 352.922 168.115 352.742 168.376C352.631 168.537 352.451 168.625 352.268 168.625ZM316.523 167.95C316.302 167.95 316.092 167.822 315.997 167.607C315.869 167.316 316.002 166.978 316.292 166.85C316.952 166.559 317.65 166.361 318.364 166.26C318.678 166.217 318.969 166.434 319.013 166.748C319.057 167.062 318.84 167.353 318.525 167.397C317.914 167.483 317.318 167.653 316.754 167.901C316.68 167.934 316.6 167.95 316.523 167.95ZM347.663 167.331H345.657C345.34 167.331 345.083 167.073 345.083 166.756C345.083 166.44 345.34 166.182 345.657 166.182H347.663C347.98 166.182 348.237 166.44 348.237 166.756C348.237 167.073 347.98 167.331 347.663 167.331ZM342.793 167.331H340.787C340.47 167.331 340.213 167.073 340.213 166.756C340.213 166.44 340.47 166.182 340.787 166.182H342.793C343.11 166.182 343.366 166.44 343.366 166.756C343.366 167.073 343.11 167.331 342.793 167.331ZM337.922 167.331H335.917C335.6 167.331 335.343 167.073 335.343 166.756C335.343 166.44 335.6 166.182 335.917 166.182H337.922C338.239 166.182 338.496 166.44 338.496 166.756C338.496 167.073 338.239 167.331 337.922 167.331ZM333.052 167.331H331.047C330.73 167.331 330.472 167.073 330.472 166.756C330.472 166.44 330.73 166.182 331.047 166.182H333.052C333.369 166.182 333.627 166.44 333.627 166.756C333.627 167.073 333.369 167.331 333.052 167.331ZM328.181 167.331H326.176C325.86 167.331 325.602 167.073 325.602 166.756C325.602 166.44 325.86 166.182 326.176 166.182H328.181C328.498 166.182 328.756 166.44 328.756 166.756C328.756 167.073 328.498 167.331 328.181 167.331ZM323.312 167.331H321.306C320.99 167.331 320.732 167.073 320.732 166.756C320.732 166.44 320.99 166.182 321.306 166.182H323.312C323.628 166.182 323.886 166.44 323.886 166.756C323.886 167.073 323.628 167.331 323.312 167.331Z" fill="#C78FE8"/>
</g>
<mask id="mask6_1_1559" style="mask-type:alpha" maskUnits="userSpaceOnUse" x="315" y="237" width="55" height="35">
<path d="M369.756 240.736C359.281 240.516 318.154 240.863 318.154 240.863C318.154 240.863 318.588 259.68 318.627 271.45" stroke="#B9B9B9" stroke-width="5.4"/>
</mask>
<g mask="url(#mask6_1_1559)">
<path d="M320.021 281.65C319.841 281.65 319.661 281.632 319.487 281.598C319.223 281.547 319.051 281.292 319.102 281.028C319.154 280.765 319.409 280.593 319.673 280.644C319.786 280.667 319.903 280.677 320.02 280.677L321.274 280.676C321.542 280.676 321.76 280.893 321.761 281.161C321.762 281.429 321.544 281.649 321.276 281.649L320.021 281.65ZM323.701 281.645C323.433 281.645 323.216 281.427 323.215 281.159C323.214 280.89 323.432 280.673 323.7 280.672L325.399 280.669C325.667 280.669 325.886 280.887 325.886 281.155C325.887 281.424 325.669 281.642 325.4 281.642L323.701 281.645ZM327.826 281.639C327.558 281.639 327.341 281.421 327.34 281.153C327.339 280.884 327.557 280.666 327.826 280.666L329.524 280.664C329.792 280.664 330.01 280.881 330.011 281.149C330.012 281.418 329.793 281.636 329.525 281.636L327.826 281.639ZM331.951 281.632C331.682 281.632 331.466 281.415 331.465 281.147C331.464 280.878 331.682 280.66 331.951 280.66L333.649 280.658C333.917 280.658 334.135 280.875 334.136 281.144C334.137 281.413 333.918 281.631 333.65 281.631L331.951 281.632ZM336.076 281.627C335.808 281.627 335.59 281.409 335.589 281.141C335.588 280.873 335.806 280.654 336.075 280.654L337.774 280.651C338.042 280.651 338.26 280.869 338.261 281.137C338.261 281.406 338.044 281.624 337.775 281.624L336.076 281.627ZM340.201 281.621C339.933 281.621 339.715 281.404 339.714 281.136C339.713 280.866 339.932 280.649 340.2 280.649L341.898 280.646C342.167 280.646 342.384 280.863 342.385 281.131C342.386 281.4 342.168 281.619 341.9 281.619L340.201 281.621ZM344.326 281.615C344.057 281.615 343.841 281.397 343.84 281.129C343.839 280.86 344.056 280.642 344.325 280.642L346.023 280.64C346.291 280.64 346.51 280.857 346.511 281.126C346.512 281.395 346.293 281.613 346.025 281.613L344.326 281.615ZM348.45 281.609C348.182 281.609 347.965 281.392 347.964 281.124C347.963 280.855 348.18 280.636 348.449 280.636L350.148 280.634C350.416 280.634 350.635 280.851 350.636 281.119C350.636 281.388 350.418 281.606 350.15 281.606L348.45 281.609ZM352.575 281.604C352.307 281.604 352.09 281.386 352.089 281.118C352.088 280.848 352.306 280.631 352.575 280.631L354.273 280.628C354.542 280.628 354.759 280.846 354.76 281.114C354.761 281.383 354.543 281.6 354.274 281.601L352.575 281.604ZM356.701 281.597C356.432 281.597 356.215 281.379 356.214 281.111C356.213 280.842 356.432 280.624 356.7 280.624L358.398 280.622C358.666 280.622 358.884 280.839 358.885 281.108C358.886 281.377 358.667 281.594 358.399 281.595L356.701 281.597ZM360.825 281.591C360.557 281.591 360.339 281.374 360.338 281.106C360.338 280.837 360.555 280.62 360.824 280.619L362.523 280.616C362.791 280.616 363.009 280.833 363.01 281.101C363.011 281.37 362.793 281.588 362.525 281.589L360.825 281.591ZM364.95 281.586C364.682 281.586 364.464 281.368 364.463 281.1C364.462 280.83 364.681 280.614 364.949 280.613L366.647 280.61C366.916 280.61 367.133 280.828 367.134 281.096C367.135 281.364 366.917 281.582 366.649 281.583L364.95 281.586ZM369.075 281.579C368.807 281.579 368.59 281.362 368.589 281.094C368.588 280.826 368.805 280.607 369.074 280.606L370.773 280.605C371.041 280.605 371.259 280.821 371.26 281.09C371.261 281.358 371.042 281.577 370.774 281.577L369.075 281.579ZM372.957 280.764C372.847 280.764 372.735 280.727 372.643 280.65C372.438 280.476 372.412 280.169 372.586 279.964C372.859 279.64 373.01 279.227 373.01 278.8L373.01 278.709C373.009 278.44 373.226 278.222 373.495 278.221C373.496 278.221 373.496 278.221 373.496 278.221C373.765 278.221 373.982 278.438 373.982 278.706V278.798C373.982 279.455 373.751 280.092 373.329 280.591C373.233 280.705 373.096 280.764 372.957 280.764ZM317.844 280.077C317.64 280.077 317.449 279.948 317.381 279.742C317.291 279.464 317.244 279.174 317.244 278.88L317.243 277.905C317.242 277.636 317.46 277.419 317.728 277.418C317.996 277.418 318.214 277.635 318.215 277.904L318.217 278.879C318.217 279.071 318.246 279.259 318.306 279.439C318.389 279.694 318.25 279.969 317.995 280.053C317.945 280.069 317.894 280.077 317.844 280.077ZM373.493 276.768C373.225 276.768 373.008 276.55 373.007 276.282L373.004 274.584C373.003 274.315 373.22 274.097 373.489 274.097C373.757 274.097 373.976 274.314 373.977 274.582L373.979 276.281C373.98 276.549 373.762 276.767 373.494 276.768H373.493ZM317.725 275.964C317.457 275.964 317.24 275.746 317.239 275.478L317.237 273.78C317.236 273.511 317.454 273.293 317.723 273.293C317.991 273.293 318.209 273.511 318.209 273.779L318.211 275.477C318.212 275.745 317.994 275.964 317.725 275.964ZM373.487 272.643C373.218 272.643 373.001 272.425 373.001 272.157L372.998 270.459C372.997 270.191 373.215 269.972 373.484 269.972C373.752 269.972 373.97 270.189 373.971 270.457L373.973 272.155C373.974 272.424 373.756 272.642 373.487 272.643H373.487ZM317.719 271.839C317.451 271.839 317.234 271.622 317.233 271.353L317.231 269.655C317.23 269.387 317.448 269.169 317.716 269.168C317.984 269.168 318.202 269.386 318.203 269.654L318.206 271.353C318.207 271.622 317.988 271.839 317.719 271.839ZM373.481 268.518C373.213 268.518 372.995 268.301 372.994 268.032L372.992 266.334C372.992 266.066 373.208 265.847 373.478 265.847C373.746 265.847 373.964 266.064 373.964 266.332L373.967 268.031C373.968 268.299 373.749 268.518 373.481 268.518ZM317.714 267.715C317.445 267.715 317.228 267.497 317.227 267.229L317.225 265.53C317.224 265.262 317.442 265.044 317.71 265.044C317.978 265.044 318.197 265.26 318.198 265.529L318.2 267.228C318.2 267.496 317.983 267.714 317.714 267.715ZM373.475 264.393C373.207 264.393 372.99 264.176 372.989 263.908L372.986 262.209C372.985 261.941 373.203 261.722 373.472 261.722C373.74 261.722 373.958 261.939 373.959 262.208L373.962 263.906C373.963 264.174 373.743 264.392 373.475 264.393ZM317.707 263.59C317.439 263.59 317.222 263.372 317.221 263.104L317.219 261.406C317.218 261.137 317.435 260.919 317.705 260.919C317.973 260.919 318.191 261.136 318.191 261.404L318.194 263.102C318.195 263.37 317.976 263.589 317.707 263.59ZM373.469 260.268C373.2 260.268 372.983 260.051 372.983 259.783L372.98 258.084C372.979 257.816 373.197 257.597 373.466 257.597C373.734 257.597 373.952 257.815 373.953 258.083L373.955 259.781C373.956 260.049 373.737 260.267 373.469 260.268ZM317.702 259.464C317.434 259.464 317.216 259.248 317.215 258.979L317.213 257.281C317.212 257.013 317.429 256.793 317.698 256.793C317.966 256.793 318.184 257.011 318.185 257.279L318.188 258.978C318.189 259.247 317.971 259.464 317.702 259.464ZM373.463 256.143C373.195 256.143 372.977 255.926 372.976 255.657L372.974 253.959C372.974 253.691 373.19 253.472 373.46 253.472C373.728 253.472 373.946 253.69 373.947 253.958L373.949 255.657C373.95 255.925 373.731 256.143 373.463 256.143ZM317.696 255.34C317.427 255.34 317.21 255.123 317.21 254.855L317.207 253.155C317.206 252.887 317.424 252.669 317.693 252.669C317.961 252.669 318.179 252.886 318.18 253.155L318.182 254.853C318.183 255.121 317.965 255.339 317.696 255.34ZM373.457 252.019C373.189 252.019 372.972 251.801 372.971 251.533L372.968 249.834C372.967 249.566 373.185 249.348 373.454 249.348C373.722 249.348 373.94 249.564 373.941 249.833L373.944 251.532C373.945 251.8 373.725 252.019 373.457 252.019ZM317.69 251.215C317.422 251.215 317.204 250.997 317.203 250.729L317.201 249.031C317.2 248.763 317.418 248.544 317.687 248.544C317.955 248.544 318.173 248.762 318.173 249.03L318.176 250.728C318.177 250.996 317.958 251.214 317.69 251.215ZM373.451 247.894C373.183 247.894 372.965 247.676 372.965 247.408L372.963 245.71C372.962 245.442 373.18 245.223 373.448 245.223C373.716 245.223 373.934 245.44 373.935 245.708L373.937 247.406C373.938 247.674 373.72 247.893 373.451 247.894ZM317.684 247.09C317.416 247.09 317.199 246.873 317.198 246.604L317.195 244.906C317.194 244.638 317.412 244.419 317.68 244.419C317.948 244.419 318.168 244.637 318.168 244.905L318.17 246.603C318.171 246.873 317.953 247.09 317.685 247.09H317.684ZM373.445 243.768C373.177 243.768 372.96 243.552 372.959 243.283L372.958 242.747C372.957 242.44 372.878 242.138 372.73 241.872C372.598 241.637 372.683 241.341 372.917 241.21C373.152 241.079 373.447 241.162 373.578 241.396C373.808 241.806 373.93 242.274 373.931 242.746V243.282C373.932 243.551 373.713 243.768 373.445 243.768ZM317.705 242.967C317.68 242.967 317.656 242.965 317.632 242.961C317.366 242.921 317.183 242.673 317.223 242.408C317.327 241.721 317.683 241.102 318.226 240.663C318.434 240.495 318.74 240.528 318.91 240.736C319.078 240.945 319.046 241.252 318.837 241.42C318.484 241.705 318.253 242.108 318.185 242.553C318.149 242.795 317.941 242.967 317.705 242.967ZM319.962 241.023C319.694 241.023 319.477 240.806 319.476 240.537C319.475 240.269 319.692 240.051 319.961 240.051L321.66 240.048C321.928 240.048 322.146 240.266 322.147 240.534C322.148 240.802 321.929 241.021 321.661 241.021L319.962 241.023ZM324.086 241.017C323.818 241.017 323.601 240.799 323.6 240.531C323.6 240.263 323.817 240.044 324.086 240.044L325.785 240.042C326.053 240.042 326.272 240.259 326.272 240.528C326.273 240.796 326.054 241.014 325.786 241.014L324.086 241.017ZM328.212 241.011C327.944 241.011 327.726 240.794 327.725 240.526C327.724 240.257 327.943 240.039 328.211 240.039L329.909 240.036C330.178 240.036 330.395 240.253 330.396 240.521C330.397 240.79 330.179 241.008 329.91 241.008L328.212 241.011ZM332.337 241.005C332.069 241.005 331.851 240.788 331.85 240.519C331.849 240.25 332.068 240.033 332.336 240.033L334.034 240.03C334.302 240.03 334.52 240.248 334.521 240.516C334.522 240.785 334.304 241.003 334.036 241.003L332.337 241.005ZM336.461 240.999C336.193 240.999 335.975 240.782 335.975 240.514C335.974 240.245 336.192 240.026 336.461 240.026L338.159 240.024H338.16C338.428 240.024 338.645 240.241 338.646 240.51C338.647 240.779 338.429 240.996 338.161 240.996L336.461 240.999ZM340.586 240.994C340.318 240.994 340.101 240.776 340.1 240.508C340.099 240.24 340.317 240.021 340.585 240.021L342.284 240.018C342.553 240.018 342.771 240.236 342.771 240.504C342.772 240.772 342.554 240.991 342.285 240.991L340.586 240.994ZM344.711 240.987C344.443 240.987 344.226 240.77 344.225 240.501C344.224 240.233 344.442 240.015 344.711 240.015L346.409 240.012C346.677 240.012 346.895 240.23 346.896 240.498C346.897 240.766 346.678 240.985 346.41 240.985L344.711 240.987ZM348.836 240.981C348.567 240.981 348.35 240.764 348.35 240.496C348.349 240.228 348.567 240.009 348.836 240.009L350.534 240.006C350.802 240.006 351.02 240.223 351.021 240.492C351.022 240.76 350.804 240.979 350.535 240.979L348.836 240.981ZM352.961 240.976C352.693 240.976 352.475 240.758 352.474 240.49C352.473 240.222 352.692 240.003 352.96 240.003L354.659 240C354.927 240 355.145 240.218 355.145 240.486C355.146 240.754 354.929 240.973 354.66 240.973L352.961 240.976ZM357.086 240.969C356.818 240.969 356.6 240.753 356.599 240.484C356.598 240.216 356.817 239.997 357.085 239.997L358.783 239.995C359.051 239.995 359.27 240.212 359.271 240.48C359.271 240.748 359.053 240.966 358.785 240.967L357.086 240.969ZM361.211 240.963C360.942 240.963 360.725 240.746 360.725 240.478C360.724 240.21 360.941 239.991 361.21 239.991L362.908 239.988C363.176 239.988 363.395 240.205 363.396 240.474C363.397 240.743 363.178 240.96 362.91 240.961L361.211 240.963ZM365.335 240.958C365.067 240.958 364.85 240.74 364.849 240.472C364.848 240.203 365.066 239.986 365.334 239.985L367.034 239.982C367.302 239.982 367.52 240.2 367.52 240.468C367.52 240.737 367.303 240.954 367.034 240.955L365.335 240.958ZM369.46 240.951C369.192 240.951 368.975 240.735 368.974 240.466C368.973 240.197 369.192 239.979 369.46 239.979L371.154 239.977L371.158 240.95L369.46 240.951Z" fill="#4E1E61"/>
</g>
<path d="M321.084 243.939L321.133 277.758L370.091 277.687L370.041 243.869L321.084 243.939Z" fill="#8A519D"/>
<path d="M321.086 243.94L321.089 246.109L345.597 267.769L370.045 246.038L370.041 243.87L345.596 265.675L321.086 243.94Z" fill="#4E1E61"/>
<path d="M350.304 261.399L368.673 277.69L370.091 277.687L370.089 276.825L351.357 260.212L350.304 261.399Z" fill="#4E1E61"/>
<path d="M321.132 277.01L321.133 277.758L322.68 277.755L341 261.412L339.944 260.229L321.132 277.01Z" fill="#4E1E61"/>
<path d="M370.043 243.869L345.596 265.674L321.086 243.939L370.043 243.869Z" fill="#8A519D"/>
<path d="M378.836 244.321C378.836 249.98 374.248 254.568 368.589 254.568C362.93 254.568 358.341 249.98 358.341 244.321C358.341 238.662 362.93 234.074 368.589 234.074C374.248 234.074 378.836 238.662 378.836 244.321Z" fill="#C78FE8"/>
<mask id="mask7_1_1559" style="mask-type:alpha" maskUnits="userSpaceOnUse" x="361" y="238" width="16" height="14">
<path d="M363.379 244.688L366.304 248.063L375.079 240.413" stroke="#B9B9B9" stroke-width="5.4"/>
</mask>
<g mask="url(#mask7_1_1559)">
<path d="M366.489 249.19C366.225 249.19 365.972 249.085 365.786 248.898L363.275 246.387C362.887 246 362.887 245.37 363.275 244.982C363.663 244.594 364.293 244.594 364.681 244.982L366.489 246.791L373.536 239.744C373.924 239.356 374.554 239.356 374.942 239.744C375.33 240.132 375.33 240.762 374.942 241.149L367.192 248.899C367.006 249.086 366.753 249.19 366.489 249.19Z" fill="white"/>
</g>
<path d="M696.42 540.657C696.42 543.689 712.807 546.148 733.021 546.148C753.235 546.148 769.622 543.689 769.622 540.657C769.622 537.624 753.235 535.166 733.021 535.166C712.807 535.166 696.42 537.624 696.42 540.657Z" fill="#E5BF9E"/>
<path d="M772.867 457.7L770.853 468.78L770.645 469.925L770.249 472.104L770.241 472.155L769.304 477.304L769.107 478.395L768.91 479.483L768.494 481.77L761.909 518.013L761.647 519.452L761.293 521.388L761.25 521.631L760.305 526.83L760.159 527.627L759.908 529.009L759.546 531.002L757.678 541.289H709.388L707.52 531.002L707.158 529.009L706.907 527.627L706.761 526.83L705.816 521.631L705.773 521.388L705.419 519.452L705.157 518.013L698.572 481.77L698.156 479.483L697.959 478.395L697.762 477.304L696.825 472.155L696.817 472.104L696.42 469.925L696.212 468.78L694.198 457.7H772.867Z" fill="#FF4F3F"/>
<path d="M769.304 477.304L769.107 478.395L768.91 479.483H698.156L697.959 478.395L697.762 477.304H769.304Z" fill="#CE101D"/>
<path d="M770.645 469.925L770.249 472.104H696.817L696.42 469.925H770.645Z" fill="#CE101D"/>
<path d="M710.662 457.273C710.662 457.273 681.839 413.34 693.974 378.058C693.974 378.058 729.92 389.332 721.284 458.15L710.662 457.273Z" fill="#00433B"/>
<path d="M731.803 458.113L716.779 457.166C716.779 457.166 697.966 420.689 736.544 357.836C736.544 357.836 739.992 372.378 741.999 390.741C744.604 414.582 744.776 444.863 731.803 458.113Z" fill="#006C60"/>
<path d="M731.803 458.113L721.432 457.459C718.613 427.719 736.345 399.036 741.999 390.741C744.604 414.582 744.776 444.863 731.803 458.113Z" fill="#00433B"/>
<path d="M723.879 456.759C723.863 456.758 723.846 456.757 723.829 456.755C723.386 456.7 723.07 456.296 723.124 455.852L731.603 386.79C731.657 386.346 732.058 386.035 732.506 386.085C732.949 386.14 733.265 386.544 733.211 386.988L724.732 456.049C724.68 456.477 724.304 456.786 723.879 456.759Z" fill="#00433B"/>
<path d="M759.612 458.259C759.612 458.259 780.651 453.415 791.856 383.034C791.856 383.034 738.613 412.287 744.226 457.019L759.612 458.259Z" fill="#00433B"/>
<path d="M744.032 458.186C744.032 458.186 776.188 445.571 783.52 336.321C783.52 336.321 718.057 413.282 730.414 457.272L744.032 458.186Z" fill="#006C60"/>
<path d="M736.666 457.659C736.584 457.653 736.502 457.635 736.422 457.604C736.007 457.44 735.803 456.969 735.967 456.553L771.948 365.503C772.112 365.087 772.583 364.882 772.998 365.047C773.414 365.211 773.618 365.682 773.454 366.098L737.473 457.148C737.34 457.484 737.008 457.682 736.666 457.659Z" fill="#00433B"/>
<path d="M268.458 93.4865V286.033H189.114V93.4865H268.458Z" fill="#E5BF9E"/>
<path d="M268.458 89.5094V282.055H189.114V89.5094H268.458Z" fill="#3D2027"/>
<path d="M195.072 276.097V95.4674H262.499V276.097H195.072Z" fill="#F1D6BE"/>
<path d="M198.052 273.118V98.4464H259.521V273.118H198.052Z" fill="white"/>
<path d="M250.8 262.251H207.056V109.313H250.8V262.251Z" fill="#FFAE41"/>
<path d="M241.502 182.848C241.502 191.903 234.161 199.245 225.105 199.245C216.049 199.245 208.707 191.903 208.707 182.848C208.707 173.792 216.049 166.45 225.105 166.45C234.161 166.45 241.502 173.792 241.502 182.848Z" fill="white"/>
<path d="M219.234 185.782C219.234 185.782 233.143 165.154 250.8 163.738V241.316C250.8 241.316 214.284 201.811 219.234 185.782Z" fill="#00433B"/>
<path d="M207.056 181.052C207.056 181.052 215.551 178.668 231.818 198.04C247.073 216.207 250.8 239.565 250.8 239.565V262.251H207.056V181.052Z" fill="#006C60"/>
<path d="M172.924 538.72C172.924 547.403 266.776 554.442 382.55 554.442C498.323 554.442 592.176 547.403 592.176 538.72C592.176 530.037 498.323 522.998 382.55 522.998C266.776 522.998 172.924 530.037 172.924 538.72Z" fill="#E5BF9E"/>
<path d="M544.01 542.668C544.293 542.668 544.582 542.616 544.862 542.506C546.058 542.036 546.646 540.684 546.175 539.488L499.625 421.219C499.154 420.023 497.804 419.433 496.607 419.905C495.411 420.375 494.823 421.727 495.293 422.923L541.843 541.193C542.204 542.109 543.082 542.668 544.01 542.668Z" fill="#00433B"/>
<path d="M420.67 542.668C421.599 542.668 422.475 542.109 422.836 541.193L469.385 422.923C469.856 421.727 469.268 420.375 468.072 419.905C466.877 419.435 465.524 420.023 465.053 421.219L418.505 539.488C418.034 540.684 418.622 542.036 419.818 542.506C420.098 542.616 420.386 542.668 420.67 542.668Z" fill="#00433B"/>
<path d="M442.208 487.947C442.463 487.947 442.723 487.905 442.977 487.816L513.511 463.095C514.724 462.669 515.363 461.342 514.939 460.128C514.514 458.915 513.185 458.277 511.972 458.702L441.438 483.422C440.225 483.847 439.587 485.176 440.012 486.39C440.348 487.348 441.247 487.947 442.208 487.947Z" fill="#00433B"/>
<path d="M522.475 487.947C523.436 487.947 524.336 487.348 524.672 486.39C525.097 485.176 524.459 483.847 523.246 483.422L452.712 458.702C451.499 458.277 450.17 458.916 449.745 460.128C449.321 461.342 449.959 462.669 451.172 463.095L521.706 487.816C521.96 487.905 522.22 487.947 522.475 487.947Z" fill="#00433B"/>
<path d="M457.012 542.668C457.295 542.668 457.583 542.616 457.863 542.506C459.059 542.036 459.647 540.684 459.176 539.488L412.628 421.219C412.157 420.023 410.805 419.433 409.609 419.905C408.413 420.375 407.825 421.727 408.296 422.923L454.846 541.193C455.207 542.109 456.083 542.668 457.012 542.668Z" fill="#00433B"/>
<path d="M333.671 542.668C334.6 542.668 335.477 542.109 335.838 541.193L382.388 422.923C382.858 421.727 382.271 420.375 381.074 419.905C379.878 419.434 378.527 420.023 378.056 421.219L331.506 539.488C331.035 540.684 331.624 542.036 332.82 542.506C333.1 542.616 333.388 542.668 333.671 542.668Z" fill="#00433B"/>
<path d="M355.21 487.947C355.466 487.947 355.725 487.905 355.98 487.816L426.514 463.095C427.727 462.669 428.365 461.342 427.94 460.128C427.514 458.915 426.187 458.277 424.974 458.702L354.44 483.422C353.227 483.848 352.589 485.176 353.013 486.39C353.349 487.348 354.249 487.947 355.21 487.947Z" fill="#00433B"/>
<path d="M435.478 487.947C436.439 487.947 437.338 487.348 437.674 486.39C438.098 485.176 437.46 483.847 436.247 483.422L365.713 458.702C364.499 458.277 363.173 458.915 362.747 460.128C362.322 461.342 362.96 462.669 364.173 463.095L434.707 487.816C434.962 487.905 435.222 487.947 435.478 487.947Z" fill="#00433B"/>
<path d="M340.556 424.948C340.556 424.948 438.702 481.112 500.991 435.683C503.47 433.876 505.895 431.909 508.251 429.765C509.063 429.032 509.864 428.276 510.659 427.499C563.764 375.599 496.049 292.354 496.049 292.354C494.28 293.096 492.528 293.853 490.788 294.627C490.172 294.897 489.555 295.17 488.941 295.446C391.964 339.177 340.556 424.948 340.556 424.948Z" fill="#006C60"/>
<path d="M507.84 325.8C515.94 342.028 524.834 366.31 521.209 389.811C518.053 410.287 510.665 425.081 500.991 435.683C503.47 433.876 505.895 431.909 508.251 429.765C515.801 419.004 520.814 405.755 523.222 390.12C524.863 379.487 524.165 367.837 521.153 355.493C518.75 345.645 514.878 335.336 509.641 324.851C501.143 307.834 491.722 295.805 490.788 294.627C490.172 294.897 489.555 295.17 488.941 295.446C488.976 295.574 489.04 295.699 489.13 295.81C489.227 295.932 499.031 308.152 507.84 325.8Z" fill="#00433B"/>
<path d="M477.151 342.474C477.151 342.474 496.096 394.036 478.064 417.311C460.032 440.586 418.343 451.64 357.948 416.396L477.151 342.474Z" fill="#00433B"/>
<path d="M416.294 258.598L416.055 259.425L415.729 260.493C415.497 261.227 415.255 261.972 415.001 262.725C414.505 264.233 413.96 265.762 413.396 267.288C412.263 270.342 411.02 273.393 409.698 276.415C407.082 282.477 404.101 288.413 400.836 294.174C399.183 297.043 397.489 299.886 395.715 302.679C393.921 305.455 392.079 308.2 390.146 310.875C389.676 311.554 389.175 312.208 388.686 312.873C388.191 313.531 387.712 314.206 387.205 314.854C386.19 316.153 385.196 317.469 384.143 318.733C383.62 319.369 383.11 320.018 382.578 320.645L380.974 322.519L380.573 322.989L380.373 323.223L380.323 323.282C380.308 323.299 380.278 323.336 380.304 323.306L380.386 323.22C380.513 323.101 380.587 323.026 380.684 322.952C380.747 322.893 380.833 322.838 380.868 322.812C381.07 322.687 380.975 322.783 380.769 322.913C380.313 323.197 379.324 323.647 378.171 324.042C377.007 324.447 375.655 324.829 374.23 325.176C371.363 325.869 368.199 326.431 364.958 326.904C361.709 327.374 358.364 327.748 354.978 328.055C351.59 328.358 348.161 328.622 344.709 328.822C337.803 329.22 330.812 329.46 323.801 329.579C320.295 329.646 316.782 329.681 313.271 329.684L308.008 329.665L305.387 329.649L302.829 329.618L301.417 353.255L304.229 353.505L306.98 353.733C308.81 353.876 310.638 354 312.466 354.121C316.121 354.36 319.777 354.565 323.441 354.736C330.769 355.058 338.125 355.239 345.552 355.181C352.988 355.129 360.472 354.865 368.209 354.114C372.086 353.733 376.021 353.222 380.163 352.394C382.24 351.975 384.368 351.479 386.624 350.806C388.887 350.119 391.264 349.296 393.985 347.913C395.358 347.197 396.806 346.363 398.413 345.123C398.805 344.825 399.226 344.472 399.63 344.123C400.054 343.742 400.462 343.368 400.893 342.919L401.365 342.425L401.613 342.158L402.109 341.625L404.089 339.491C404.746 338.777 405.378 338.043 406.024 337.319C407.324 335.878 408.558 334.384 409.81 332.905C410.438 332.166 411.032 331.402 411.644 330.652C412.25 329.897 412.868 329.149 413.452 328.378L415.221 326.077C415.806 325.306 416.369 324.52 416.944 323.743C418.102 322.192 419.189 320.596 420.303 319.016C422.481 315.825 424.587 312.586 426.579 309.279C430.546 302.657 434.176 295.842 437.413 288.811C439.018 285.289 440.514 281.707 441.919 278.055C442.619 276.225 443.297 274.383 443.944 272.493C444.264 271.548 444.575 270.588 444.882 269.613L445.341 268.108L445.571 267.317L445.839 266.35L416.294 258.598Z" fill="#FFAE41"/>
<path d="M387.661 332.602C387.914 332.691 388.206 332.663 388.445 332.501C388.846 332.229 388.951 331.683 388.679 331.282C385.319 326.326 381.888 322.719 381.744 322.568C381.409 322.218 380.853 322.205 380.503 322.54C380.152 322.875 380.14 323.43 380.475 323.78C380.51 323.816 383.953 327.438 387.226 332.267C387.335 332.428 387.49 332.541 387.661 332.602Z" fill="#EF772C"/>
<path d="M387.17 326.189C387.599 326.341 388.078 326.137 388.264 325.713C388.459 325.269 388.257 324.752 387.813 324.557C387.781 324.543 384.622 323.16 381.887 322.199C381.43 322.038 380.929 322.278 380.768 322.735C380.607 323.193 380.847 323.694 381.305 323.855C383.977 324.795 387.077 326.152 387.108 326.166C387.128 326.175 387.149 326.182 387.17 326.189Z" fill="#EF772C"/>
<path d="M315.099 356.776C315.177 356.803 315.261 356.82 315.348 356.825C315.832 356.849 316.244 356.475 316.268 355.991L317.636 328.165C317.66 327.68 317.287 327.269 316.802 327.244C316.318 327.22 315.907 327.594 315.883 328.078L314.514 355.905C314.495 356.301 314.742 356.65 315.099 356.776Z" fill="#EF772C"/>
<path d="M302.281 348.447C302.363 348.476 302.452 348.493 302.544 348.496L315.339 348.906C315.824 348.922 316.229 348.541 316.245 348.057C316.261 347.572 315.88 347.166 315.395 347.151L302.601 346.741C302.117 346.725 301.712 347.106 301.696 347.59C301.684 347.982 301.929 348.323 302.281 348.447Z" fill="#EF772C"/>
<path d="M307.393 340.149C306.816 341.108 307.127 342.355 308.087 342.932C309.048 343.509 310.293 343.198 310.87 342.238C311.447 341.277 311.136 340.032 310.176 339.455C309.216 338.878 307.97 339.189 307.393 340.149Z" fill="#EF772C"/>
<path d="M282.076 486.076L275.344 500.014C275.344 500.014 263.341 504.912 253.077 504.21C244.19 503.603 225.8 495.653 221.559 499.991C218.884 502.727 232.838 513.28 239.596 516.493C246.354 519.707 261.213 531.123 270.983 535.017C280.753 538.911 286.21 523.368 288.82 518.798C293.376 510.818 299.387 498.406 299.387 498.406L282.076 486.076Z" fill="#FF9D83"/>
<path d="M267.162 501.7C267.162 501.7 258.788 514.702 260.359 529.414C260.359 529.414 222.839 511.933 219.217 500.596C217.879 496.415 220.765 494.36 226.151 493.84C226.835 493.773 227.556 493.731 228.321 493.711C230.166 493.672 232.225 493.767 234.452 493.986C235.051 494.042 235.657 494.109 236.277 494.185C238.109 494.406 240.034 494.703 242.032 495.063C242.626 495.168 243.223 495.279 243.829 495.395C245.595 495.743 247.408 496.134 249.251 496.564C249.838 496.701 250.427 496.842 251.016 496.986C252.745 497.409 254.494 497.867 256.253 498.352C256.814 498.507 257.379 498.668 257.944 498.829C259.664 499.319 261.389 499.839 263.105 500.381C263.652 500.552 264.194 500.725 264.737 500.901C265.548 501.162 266.356 501.43 267.162 501.7Z" fill="#006C60"/>
<path d="M228.321 493.711C224.702 497.859 224.445 502.71 224.445 502.759C224.437 502.956 224.356 503.132 224.235 503.267C224.079 503.439 223.852 503.545 223.602 503.532C223.157 503.513 222.81 503.139 222.827 502.692C222.835 502.486 223.054 498.097 226.151 493.84C226.835 493.773 227.557 493.731 228.321 493.711Z" fill="#00433B"/>
<path d="M236.277 494.185C236.252 494.329 236.187 494.463 236.083 494.578C236.077 494.59 236.065 494.597 236.057 494.607C231.329 499.842 231.11 506.496 231.111 506.563C231.105 506.762 231.027 506.945 230.901 507.084C230.749 507.252 230.526 507.356 230.281 507.352C229.833 507.34 229.48 506.969 229.492 506.522C229.502 506.235 229.722 499.571 234.452 493.986C235.051 494.042 235.657 494.109 236.277 494.185Z" fill="#00433B"/>
<path d="M243.829 495.395C243.797 495.484 243.746 495.565 243.679 495.639L243.629 495.695C237.986 501.943 237.777 510.29 237.774 510.375C237.771 510.577 237.691 510.761 237.565 510.901C237.413 511.069 237.194 511.171 236.952 511.17C236.506 511.16 236.149 510.794 236.155 510.347C236.164 509.989 236.345 501.703 242.032 495.063C242.626 495.168 243.223 495.279 243.829 495.395Z" fill="#00433B"/>
<path d="M251.016 496.986C244.621 504.246 244.442 514.085 244.439 514.187C244.438 514.391 244.36 514.577 244.232 514.719C244.082 514.885 243.863 514.988 243.623 514.989C243.175 514.982 242.817 514.614 242.823 514.17C242.827 513.75 242.992 504.187 249.252 496.564C249.838 496.701 250.427 496.842 251.016 496.986Z" fill="#00433B"/>
<path d="M257.944 498.829C251.252 507.055 251.105 517.887 251.104 518C251.101 518.206 251.024 518.394 250.896 518.536C250.746 518.702 250.529 518.806 250.291 518.804C249.845 518.802 249.484 518.437 249.487 517.991C249.487 517.516 249.622 506.921 256.253 498.352C256.814 498.507 257.379 498.668 257.944 498.829Z" fill="#00433B"/>
<path d="M264.737 500.901C257.871 510.063 257.771 521.688 257.77 521.814C257.77 522.023 257.69 522.212 257.56 522.356C257.413 522.519 257.198 522.622 256.96 522.62C256.513 522.622 256.151 522.261 256.151 521.812C256.151 521.285 256.254 509.85 263.105 500.381C263.652 500.552 264.194 500.725 264.737 500.901Z" fill="#00433B"/>
<path d="M260.281 522.701C260.281 522.701 272.226 530.466 281.953 531.317C281.953 531.317 281.218 536.698 276.247 538.31C276.247 538.31 245.99 525.466 235.059 517.945C224.128 510.424 216.865 504.373 219.003 499.765L260.281 522.701Z" fill="#006C60"/>
<path d="M259.649 523.515C259.423 523.765 259.055 523.857 258.728 523.716C238.16 514.883 219.921 501.228 219.739 501.091C219.382 500.823 219.311 500.314 219.58 499.958C219.845 499.601 220.355 499.53 220.712 499.798C220.892 499.934 238.984 513.476 259.368 522.229C259.778 522.406 259.968 522.881 259.792 523.292C259.756 523.376 259.707 523.45 259.649 523.515Z" fill="#00433B"/>
<path d="M332.017 361.472C338.185 355.573 435.404 332.487 467.138 341.846C470.687 348.925 426.037 377.193 414.384 393.494C372.4 399.733 348.822 413.483 348.822 413.483C348.822 413.483 333.474 447.588 324.467 460.056C315.46 472.525 298.138 507.241 298.138 507.241L275.156 495.912C275.156 495.912 315.221 377.533 332.017 361.472Z" fill="#CE101D"/>
<path d="M304.498 493.984C304.837 493.988 305.162 493.795 305.311 493.465C305.509 493.023 305.312 492.504 304.871 492.305L281.286 481.692C280.844 481.492 280.324 481.69 280.125 482.132C279.925 482.574 280.124 483.094 280.566 483.293L304.151 493.906C304.263 493.957 304.381 493.982 304.498 493.984Z" fill="#9E001B"/>
<path d="M298.369 491.181C298.706 491.186 299.03 490.996 299.18 490.67C299.254 490.513 301.174 486.489 315.123 464.369C330.319 440.271 345.715 405.453 345.869 405.105C346.065 404.661 345.864 404.144 345.42 403.948C344.977 403.752 344.458 403.954 344.263 404.397C344.109 404.745 328.764 439.445 313.638 463.432C299.536 485.797 297.659 489.777 297.586 489.936C297.383 490.376 297.575 490.898 298.016 491.1C298.13 491.153 298.25 491.18 298.369 491.181Z" fill="#9E001B"/>
<path d="M302.172 490.239L297.842 512.219C297.842 512.219 287.528 515.775 277.802 519.131C269.382 522.037 249.348 521.887 247.134 527.537C245.738 531.1 262.702 535.376 270.178 535.699C277.655 536.022 295.79 540.74 306.304 540.516C316.819 540.291 314.673 523.594 316.404 518.624C318.135 513.654 322.116 492.407 322.116 492.407L302.172 490.239Z" fill="#FF9D83"/>
<path d="M289.794 511.326C289.794 511.326 287.152 526.564 294.337 539.499C294.337 539.499 252.97 538.033 245.214 529.007C242.351 525.678 244.206 522.661 248.964 520.082C249.568 519.753 250.216 519.434 250.912 519.117C252.595 518.362 254.528 517.646 256.664 516.979C257.237 516.797 257.822 516.623 258.423 516.451C260.196 515.94 262.085 515.461 264.065 515.015C264.652 514.88 265.246 514.749 265.849 514.62C267.611 514.252 269.432 513.904 271.298 513.582C271.892 513.48 272.489 513.379 273.087 513.282C274.844 512.997 276.633 512.738 278.442 512.499C279.02 512.422 279.603 512.35 280.186 512.278C281.961 512.058 283.751 511.863 285.543 511.694C286.114 511.638 286.68 511.585 287.249 511.536C288.097 511.46 288.946 511.392 289.794 511.326Z" fill="#006C60"/>
<path d="M250.912 519.117C249.197 524.348 250.853 528.915 250.872 528.96C250.941 529.145 250.936 529.338 250.876 529.509C250.8 529.729 250.633 529.914 250.397 530C249.98 530.157 249.514 529.948 249.355 529.529C249.282 529.336 247.771 525.209 248.965 520.082C249.568 519.753 250.216 519.434 250.912 519.117Z" fill="#00433B"/>
<path d="M258.423 516.451C258.456 516.593 258.449 516.741 258.397 516.888C258.397 516.901 258.389 516.912 258.385 516.925C256.074 523.588 258.466 529.803 258.493 529.863C258.566 530.05 258.565 530.248 258.504 530.426C258.43 530.64 258.264 530.821 258.036 530.914C257.62 531.077 257.149 530.874 256.985 530.457C256.884 530.189 254.487 523.966 256.664 516.979C257.237 516.797 257.822 516.623 258.423 516.451Z" fill="#00433B"/>
<path d="M265.849 514.62C265.855 514.714 265.839 514.808 265.806 514.902L265.781 514.974C263.022 522.928 266.085 530.696 266.116 530.775C266.191 530.962 266.19 531.164 266.128 531.341C266.055 531.555 265.892 531.734 265.668 531.828C265.254 531.993 264.783 531.795 264.615 531.381C264.483 531.048 261.418 523.347 264.065 515.015C264.652 514.88 265.246 514.749 265.849 514.62Z" fill="#00433B"/>
<path d="M273.087 513.282C270.03 522.461 273.702 531.591 273.738 531.686C273.816 531.874 273.819 532.077 273.756 532.257C273.683 532.468 273.521 532.648 273.3 532.742C272.886 532.911 272.413 532.713 272.244 532.301C272.084 531.913 268.506 523.042 271.298 513.582C271.892 513.48 272.489 513.379 273.087 513.282Z" fill="#00433B"/>
<path d="M280.186 512.278C277.233 522.462 281.32 532.495 281.364 532.598C281.441 532.79 281.443 532.992 281.38 533.172C281.307 533.383 281.149 533.564 280.928 533.656C280.516 533.828 280.042 533.632 279.871 533.22C279.687 532.783 275.678 522.975 278.442 512.499C279.02 512.422 279.603 512.35 280.186 512.278Z" fill="#00433B"/>
<path d="M287.249 511.536C284.499 522.651 288.941 533.394 288.989 533.51C289.07 533.703 289.07 533.908 289.006 534.091C288.934 534.299 288.777 534.477 288.556 534.569C288.146 534.746 287.673 534.553 287.497 534.14C287.292 533.655 282.928 523.085 285.543 511.694C286.114 511.638 286.68 511.585 287.249 511.536Z" fill="#00433B"/>
<path d="M291.647 533.348C291.647 533.348 305.674 535.84 314.963 532.83C314.963 532.83 316.385 538.072 312.437 541.496C312.437 541.496 279.564 541.467 266.567 538.804C253.569 536.141 244.522 533.402 244.693 528.325L291.647 533.348Z" fill="#006C60"/>
<path d="M291.381 534.344C291.271 534.662 290.968 534.89 290.613 534.888C268.229 534.775 246.109 529.314 245.888 529.259C245.454 529.151 245.191 528.712 245.299 528.278C245.404 527.847 245.846 527.582 246.28 527.69C246.499 527.745 268.437 533.158 290.621 533.27C291.067 533.272 291.428 533.637 291.426 534.083C291.426 534.175 291.41 534.262 291.381 534.344Z" fill="#00433B"/>
<path d="M479.584 369.725C479.584 369.725 498.112 447.245 408.132 435.126C367.522 429.656 349.55 419.693 349.55 419.693C349.55 419.693 341.67 455.02 336.884 469.638C332.097 484.256 321.327 509.889 321.327 509.889L297.257 505.203C297.257 505.203 308.924 393.842 330.67 385.647C352.416 377.453 387.829 375.016 436.653 379.748C436.653 379.748 471.858 371.775 479.584 369.725Z" fill="#FF4F3F"/>
<path d="M398.531 314.685C398.559 314.769 398.573 314.841 398.601 314.925C398.866 315.843 399.187 316.732 399.565 317.608C401.775 322.85 405.611 327.292 407.143 328.948C407.564 329.415 407.817 329.656 407.817 329.656C407.817 329.684 407.803 329.712 407.803 329.754C407.774 330.023 407.745 330.291 407.715 330.587C407.598 331.715 407.425 333.068 407.109 334.562C403.381 351.716 402.462 354.589 400.956 361.876C423.454 394.297 476.766 373.746 479.584 369.725C482.022 352.345 482.022 352.345 484.606 335.525C485.847 327.405 489.163 315.228 493.578 303.098C493.749 302.619 493.92 302.14 494.106 301.661C495.429 298.097 496.839 294.547 498.318 291.139C504.789 276.209 503.274 262.786 494.551 256.674C491.588 254.598 482.487 251.881 478.455 251.035C477.37 250.806 476.299 250.59 475.284 250.389C469.603 249.297 465.162 248.675 465.162 248.675L437.908 248.918C435.227 249.219 432.813 249.549 430.639 249.951C428.734 250.283 427.011 250.671 425.458 251.103C411.564 254.919 411.03 262.225 408.487 275.391C407.754 279.14 406.726 282.834 405.6 286.384C405.229 287.498 404.858 288.597 404.487 289.695C400.924 300.15 397.013 309.135 398.531 314.685Z" fill="#FFAE41"/>
<path d="M466.656 248.918C466.656 248.918 480.849 251.185 480.772 259.316C480.696 267.447 451.745 266.793 451.745 266.793C451.745 266.793 465.173 257.89 466.656 248.918Z" fill="white"/>
<path d="M438.54 248.918C438.54 248.918 424.346 251.185 424.422 259.316C424.499 267.447 444.455 267.571 444.455 267.571C444.455 267.571 440.022 257.89 438.54 248.918Z" fill="white"/>
<path d="M438.653 247.803L437.668 257.448C436.866 265.316 445.416 270.67 452.168 266.55C460.033 261.75 467.093 255.189 467.184 248.977L438.653 247.803Z" fill="#FF9D83"/>
<path d="M407.817 329.656C407.817 329.684 407.803 329.712 407.803 329.755C407.774 330.023 407.745 330.291 407.715 330.587C412.691 331.733 419.095 331.897 426.633 330.456C441.497 327.602 453.618 334.5 453.731 334.571C453.843 334.642 453.984 334.671 454.111 334.671C454.365 334.672 454.619 334.532 454.747 334.292C454.959 333.94 454.834 333.49 454.482 333.276C453.975 332.978 441.77 326.038 426.341 328.988C418.521 330.484 412.006 330.221 407.143 328.948C407.564 329.415 407.817 329.656 407.817 329.656Z" fill="#EF772C"/>
<path d="M432.406 292.642C441.502 292.674 460.105 279.714 460.892 279.162C461.23 278.925 461.311 278.459 461.075 278.122C460.838 277.784 460.373 277.701 460.034 277.938C459.845 278.07 441.034 291.179 432.411 291.148C424.16 291.119 422.364 282.1 422.347 282.009C422.27 281.605 421.882 281.335 421.475 281.414C421.07 281.49 420.802 281.882 420.879 282.287C420.899 282.389 422.936 292.609 432.406 292.642Z" fill="#EF772C"/>
<path d="M436.186 234.941L439.102 253.297C439.102 253.297 448.802 266.553 467.184 248.977C463.619 243.717 461.035 229.08 461.726 223.715C461.726 223.715 458.826 227.458 456.601 229.38C456.165 229.756 455.613 230.043 455.067 230.397C450.245 233.513 442.874 234.278 436.186 234.941Z" fill="#FF9D83"/>
<path d="M436.186 234.941L438.16 246.365C443.603 244.093 452.122 237.273 456.601 229.38C456.125 229.704 455.613 230.043 455.067 230.397C450.245 233.513 442.874 234.278 436.186 234.941Z" fill="#270A04"/>
<path d="M374.102 347.777C374.102 347.777 358.309 337.698 350.009 340.473L351.186 353.841C351.186 353.841 357.506 358.009 360.271 359.829C363.037 361.648 362.514 367.353 373.824 369.057L374.102 347.777Z" fill="#FF9D83"/>
<path d="M501.223 291.724C501.732 287.66 502.078 283.584 502.241 279.466C502.322 277.407 502.36 275.34 502.343 273.241C502.329 272.19 502.303 271.132 502.259 270.049C502.237 269.507 502.21 268.959 502.175 268.392L502.117 267.52L502.082 267.054L502.026 266.43L471.631 269.443L471.684 270.223L471.738 271.314C471.77 272.064 471.789 272.839 471.799 273.624C471.826 275.191 471.818 276.791 471.768 278.397C471.677 281.611 471.437 284.854 471.068 288.075C470.372 294.525 469.139 300.904 467.35 307.048C466.907 308.584 466.417 310.106 465.904 311.612C465.399 313.122 464.852 314.612 464.269 316.085C463.694 317.559 463.074 319.012 462.421 320.446C461.774 321.883 461.076 323.291 460.355 324.683C459.642 326.08 458.869 327.441 458.087 328.794C457.287 330.134 456.466 331.459 455.598 332.752C454.728 334.043 453.833 335.318 452.89 336.554C452.428 337.178 451.941 337.784 451.455 338.392L451.406 338.454C451.106 338.63 450.692 338.842 450.209 339.06C449.201 339.512 447.921 339.976 446.543 340.402C443.765 341.261 440.593 341.977 437.33 342.609C430.775 343.862 423.807 344.712 416.783 345.415C409.746 346.097 402.613 346.609 395.452 346.993C391.869 347.196 388.279 347.363 384.692 347.497L379.31 347.673L376.629 347.754L374.01 347.816L373.455 371.49L376.338 371.64L379.158 371.773C381.034 371.848 382.909 371.908 384.782 371.962C388.527 372.07 392.272 372.141 396.024 372.179C403.531 372.229 411.058 372.128 418.655 371.773C426.265 371.424 433.913 370.84 441.836 369.709C445.808 369.133 449.837 368.402 454.124 367.28C454.58 367.159 455.038 367.033 455.502 366.898C457.223 366.409 458.997 365.839 460.878 365.099C462.073 364.626 463.319 364.085 464.638 363.408C465.952 362.735 467.368 361.911 468.883 360.804C469.652 360.234 470.442 359.595 471.26 358.825C471.679 358.422 472.083 358.022 472.506 357.548L472.818 357.203L472.964 357.031L473.223 356.732C473.916 355.931 474.606 355.131 475.27 354.309C476.476 352.852 477.63 351.356 478.75 349.838C478.882 349.659 479.016 349.479 479.149 349.297C480.394 347.592 481.579 345.847 482.727 344.079C483.855 342.303 484.963 340.512 485.991 338.681C490.111 331.36 493.437 323.659 495.921 315.771C498.417 307.881 500.155 299.835 501.223 291.724ZM451.532 338.38C451.546 338.364 451.561 338.353 451.578 338.338C451.731 338.202 451.813 338.147 451.853 338.133C451.892 338.121 451.776 338.228 451.532 338.38Z" fill="#FFAE41"/>
<path d="M478.75 349.838C477.63 351.356 476.476 352.852 475.27 354.309C474.606 355.131 473.916 355.931 473.223 356.732L472.964 357.031L472.818 357.203L472.505 357.548C472.083 358.022 471.679 358.422 471.26 358.825C470.442 359.595 469.652 360.234 468.883 360.804C467.368 361.911 465.952 362.735 464.638 363.408C463.319 364.085 462.073 364.626 460.878 365.099C458.997 365.839 457.223 366.409 455.502 366.898C459.152 347.612 472.07 348.152 478.75 349.838Z" fill="#EF772C"/>
<path d="M458.866 347.722C459.13 347.814 459.434 347.779 459.676 347.601C460.067 347.315 460.152 346.766 459.866 346.375C456.325 341.538 450.996 336.471 450.771 336.258C450.419 335.925 449.863 335.94 449.53 336.291C449.197 336.643 449.212 337.198 449.564 337.531C449.618 337.583 455.005 342.705 458.449 347.412C458.559 347.56 458.704 347.665 458.866 347.722Z" fill="#EF772C"/>
<path d="M458.144 341.331C458.564 341.479 459.037 341.286 459.229 340.873C459.434 340.434 459.243 339.912 458.804 339.707C458.621 339.622 454.291 337.612 450.821 336.423C450.363 336.266 449.863 336.512 449.706 336.97C449.549 337.429 449.803 337.92 450.253 338.085C453.631 339.242 458.019 341.278 458.063 341.298C458.089 341.311 458.116 341.322 458.144 341.331Z" fill="#EF772C"/>
<path d="M392.022 347.572C392.139 347.612 392.266 347.63 392.398 347.617C425.792 344.307 448.775 338.264 450.015 337.376C450.115 337.304 450.199 337.212 450.261 337.106C451.266 335.39 474.874 294.91 474.91 277.216C474.911 276.731 474.52 276.337 474.034 276.336C473.55 276.335 473.156 276.727 473.155 277.212C473.122 293.769 450.817 332.646 448.879 335.991C446.437 336.969 424.1 342.711 392.225 345.87C391.743 345.918 391.39 346.347 391.438 346.83C391.473 347.181 391.709 347.463 392.022 347.572Z" fill="#EF772C"/>
<path d="M472.297 285.387C472.506 285.46 472.742 285.455 472.959 285.353C473.398 285.147 473.587 284.624 473.381 284.186L471.081 279.282C470.875 278.842 470.351 278.653 469.913 278.859C469.473 279.065 469.285 279.588 469.491 280.027L471.792 284.932C471.896 285.153 472.082 285.312 472.297 285.387Z" fill="#EF772C"/>
<path d="M387.255 372.316C387.342 372.347 387.436 372.363 387.534 372.365C388.019 372.371 388.417 371.983 388.424 371.499L388.724 348.352C388.73 347.867 388.342 347.469 387.857 347.463C387.373 347.457 386.974 347.844 386.968 348.329L386.668 371.476C386.662 371.863 386.909 372.194 387.255 372.316Z" fill="#EF772C"/>
<path d="M374.116 366.643C374.208 366.676 374.307 366.693 374.41 366.692L387.211 366.64C387.696 366.638 388.088 366.244 388.086 365.758C388.084 365.273 387.689 364.882 387.204 364.885L374.403 364.937C373.918 364.939 373.526 365.333 373.528 365.818C373.53 366.199 373.776 366.523 374.116 366.643Z" fill="#EF772C"/>
<path d="M378.953 358.175C378.412 359.156 378.767 360.39 379.747 360.931C380.728 361.473 381.962 361.118 382.503 360.137C383.045 359.157 382.69 357.924 381.709 357.382C380.729 356.841 379.495 357.195 378.953 358.175Z" fill="#EF772C"/>
<path d="M415.473 383.614L320.155 379.686C319.584 379.663 319.14 379.182 319.163 378.61L319.602 367.987C319.625 367.416 320.107 366.972 320.678 366.996L415.996 370.923C416.568 370.947 417.011 371.429 416.988 372L416.551 382.622C416.527 383.194 416.045 383.637 415.473 383.614Z" fill="#270A04"/>
<path d="M308.957 379.226C305.291 379.074 302.186 376.479 301.386 372.899L285.983 303.943C285.042 299.73 288.352 295.768 292.667 295.946L336.269 297.742C339.211 297.864 341.714 299.927 342.392 302.792L361.012 381.37L308.957 379.226Z" fill="#270A04"/>
<path d="M313.473 338.533C314.482 343.053 318.585 347.004 322.637 347.358C326.69 347.711 329.157 344.334 328.149 339.815C327.14 335.295 323.038 331.344 318.985 330.99C314.933 330.636 312.464 334.013 313.473 338.533Z" fill="#FFAE41"/>
<path d="M321.674 337.714C321.876 338.618 322.326 339.376 322.678 339.407C323.031 339.438 323.152 338.729 322.951 337.826C322.749 336.922 322.299 336.164 321.947 336.134C321.594 336.103 321.473 336.811 321.674 337.714Z" fill="#270A04"/>
<path d="M317.846 337.38C318.047 338.284 318.497 339.042 318.849 339.072C319.202 339.103 319.324 338.395 319.122 337.492C318.92 336.588 318.47 335.829 318.119 335.799C317.766 335.768 317.644 336.477 317.846 337.38Z" fill="#270A04"/>
<path d="M321.637 343.154C324.792 343.429 324.73 339.975 324.729 339.94C324.724 339.751 324.572 339.551 324.391 339.494C324.209 339.438 324.066 339.546 324.071 339.734C324.074 339.859 324.112 342.672 321.478 342.442C318.842 342.211 317.599 339.287 317.548 339.163C317.467 338.968 317.27 338.832 317.108 338.859C316.946 338.886 316.878 339.065 316.958 339.26C316.974 339.296 318.481 342.878 321.637 343.154Z" fill="#270A04"/>
<path d="M342.395 302.794L360.86 380.724L365.842 380.929L347.378 302.999C346.693 300.133 344.196 298.066 341.253 297.945L336.27 297.74C339.213 297.861 341.71 299.928 342.395 302.794Z" fill="#270A04"/>
<path d="M359.539 375.871C359.216 375.871 358.924 375.651 358.846 375.323L341.702 302.958C341.611 302.575 341.849 302.192 342.231 302.101C342.614 302.01 342.998 302.247 343.089 302.629L360.233 374.995C360.324 375.377 360.086 375.762 359.704 375.852C359.649 375.866 359.593 375.871 359.539 375.871Z" fill="#594B54"/>
<path d="M424.542 181.533C428.986 191.972 438.066 205.902 448.652 218.468C462.795 235.257 479.621 249.608 491.645 249.933C512.665 250.499 517.488 234.003 517.488 234.003C492.069 249.126 480.334 219.908 474.392 197.045C468.449 174.183 456.182 158.872 439.421 163.133C427.853 166.072 425.165 173.719 424.609 178.174C424.361 180.174 424.542 181.533 424.542 181.533Z" fill="#270A04"/>
<path d="M424.542 181.533C428.986 191.972 438.066 205.902 448.652 218.468L466.779 214.948C466.779 214.948 468.161 194.212 455.029 182.795C445.209 174.258 431.232 175.986 424.609 178.174C424.361 180.174 424.542 181.533 424.542 181.533Z" fill="#FFAE41"/>
<path d="M407.723 194.424C407.723 194.424 418.072 173.172 441.484 179.432C465.301 185.799 475 220.105 459.227 230.261C459.227 230.261 421.762 215.421 407.723 194.424Z" fill="#270A04"/>
<path d="M419.447 227.26C419.447 227.26 413.446 225.05 413.822 230.448C414.197 235.845 420.631 243.552 425.303 239.046L419.447 227.26Z" fill="#FF7D65"/>
<path d="M427.629 245.642C442.451 252.353 458.489 226.258 458.968 225.467C458.975 225.454 458.979 225.447 458.979 225.447C458.665 224.422 458.333 223.415 457.99 222.428C455.09 214.071 451.192 206.991 446.636 200.746C443.011 193.494 435.1 189.311 427.104 190.652C418.819 192.043 414.373 198.551 411.319 201.789C406.71 206.677 407.289 215.887 413.086 226.189C420.201 238.834 423.531 243.787 427.629 245.642Z" fill="#FF9D83"/>
<path d="M423.53 207.911C423.53 207.911 421.603 209.27 423.381 210.735C425.159 212.199 428.085 207.816 432.97 209.602C432.97 209.602 431.672 204.407 423.53 207.911Z" fill="#270A04"/>
<path d="M414.279 213.155C414.279 213.155 416.435 212.2 416.778 214.477C417.121 216.755 411.858 217.014 410.881 222.123C410.881 222.123 407.091 218.34 414.279 213.155Z" fill="#270A04"/>
<path d="M432.459 222.134C432.999 223.086 435.398 222.746 437.818 221.374C440.238 220.003 441.762 218.118 441.222 217.166C440.682 216.213 438.283 216.554 435.863 217.925C433.443 219.297 431.919 221.182 432.459 222.134Z" fill="#FF7D65"/>
<g opacity="0.8">
<path d="M415.557 233.926C415.914 233.768 416.278 233.584 416.641 233.379C419.059 232.009 420.582 230.123 420.043 229.171C419.503 228.219 417.103 228.558 414.685 229.928C414.358 230.113 414.048 230.309 413.757 230.51L415.557 233.926Z" fill="#FF7D65"/>
</g>
<path d="M451.704 222.573C451.849 222.684 455.831 225.697 458.968 225.467C458.97 225.465 458.971 225.469 458.973 225.467C458.977 225.453 458.979 225.447 458.979 225.447C458.664 224.422 458.333 223.415 457.99 222.428C457.889 222.466 455.146 223.446 451.704 222.573Z" fill="#270A04"/>
<path d="M448.95 212.13C448.95 212.13 450.198 202.139 457.16 205.488C462.896 208.248 463.647 223.489 455.094 222.969L448.95 212.13Z" fill="#FF9D83"/>
<path d="M457.857 218.141C457.857 218.141 457.801 228.649 460.908 228.338C466.621 227.766 457.857 218.141 457.857 218.141Z" fill="white"/>
<path d="M454.61 220.447C454.881 220.293 454.998 219.957 454.872 219.665C452.439 214.018 455.843 209.64 455.99 209.457C456.202 209.19 456.158 208.801 455.892 208.587C455.626 208.375 455.238 208.416 455.023 208.683C454.858 208.889 451.004 213.809 453.736 220.155C453.872 220.468 454.235 220.613 454.549 220.478C454.571 220.469 454.59 220.458 454.61 220.447Z" fill="#270A04"/>
<path d="M457.783 214.338C457.939 214.25 458.055 214.093 458.088 213.902C458.145 213.565 457.918 213.246 457.581 213.19C457.268 213.136 454.476 212.711 453.094 214.041C452.848 214.278 452.841 214.669 453.078 214.915C453.315 215.162 453.706 215.169 453.952 214.932C454.746 214.167 456.692 214.297 457.376 214.41C457.521 214.435 457.663 214.406 457.783 214.338Z" fill="#270A04"/>
<path d="M428.795 217.645C429.537 218.953 430.732 219.677 431.463 219.262C432.195 218.847 432.188 217.45 431.446 216.142C430.705 214.834 429.51 214.11 428.778 214.525C428.047 214.94 428.054 216.337 428.795 217.645Z" fill="#270A04"/>
<path d="M415.747 224.68C416.489 225.988 417.683 226.712 418.415 226.297C419.147 225.882 419.139 224.485 418.398 223.177C417.656 221.869 416.462 221.145 415.73 221.56C414.999 221.975 415.006 223.371 415.747 224.68Z" fill="#270A04"/>
<path d="M429.127 233.585C432.453 231.7 434.034 227.683 434.057 227.624C434.179 227.306 434.02 226.947 433.701 226.825C433.382 226.703 433.024 226.863 432.902 227.182C432.78 227.497 429.93 234.682 423.819 233.068C423.488 232.98 423.149 233.177 423.062 233.508C422.974 233.838 423.172 234.177 423.502 234.264C425.748 234.857 427.618 234.441 429.127 233.585Z" fill="#270A04"/>
<path d="M438.097 198.566C438.097 198.566 442.953 215.424 448.213 214.672C454.439 213.782 450.274 200.568 442.712 191.58L438.097 198.566Z" fill="#270A04"/>
<path d="M441.724 201.056C441.724 201.056 419.534 212.618 411.686 205.206C411.686 205.206 412.423 214.001 407.473 216.327C407.473 216.327 401.052 208.645 407.723 194.424C407.723 194.424 430.226 178.863 439.982 187.195C449.738 195.526 441.724 201.056 441.724 201.056Z" fill="#270A04"/>
<path d="M431.08 223.976C428.908 224.742 426.439 223.816 425.338 221.718L423.807 218.797C423.205 217.65 423.65 216.225 424.797 215.623L436.667 209.401C437.816 208.799 439.239 209.244 439.841 210.391L441.372 213.313C441.956 214.428 442.073 215.704 441.697 216.906C441.323 218.108 440.501 219.091 439.386 219.676L431.702 223.705C431.498 223.811 431.291 223.901 431.08 223.976ZM437.356 210.341C437.302 210.36 437.249 210.384 437.196 210.411L425.327 216.633C424.736 216.943 424.507 217.677 424.817 218.268L426.348 221.189C426.792 222.035 427.538 222.657 428.449 222.941C429.36 223.226 430.327 223.137 431.173 222.695L438.857 218.666C439.703 218.224 440.324 217.477 440.608 216.566C440.893 215.654 440.806 214.687 440.362 213.842L438.831 210.921C438.548 210.382 437.914 210.144 437.356 210.341Z" fill="white"/>
<path d="M415.64 232.07C414.688 232.406 413.657 232.426 412.675 232.12C411.474 231.744 410.49 230.923 409.905 229.809L408.374 226.888C407.772 225.74 408.217 224.317 409.364 223.715L417.367 219.519C418.518 218.915 419.938 219.362 420.54 220.51L422.072 223.431C423.278 225.733 422.388 228.587 420.086 229.794L416.269 231.795C416.064 231.903 415.854 231.994 415.64 232.07ZM418.056 220.459C418.002 220.478 417.949 220.502 417.896 220.529L409.893 224.724C409.302 225.034 409.073 225.768 409.383 226.359L410.915 229.28C411.357 230.126 412.104 230.748 413.015 231.032C413.926 231.317 414.894 231.229 415.739 230.785L419.556 228.785C421.301 227.87 421.977 225.705 421.062 223.96L419.531 221.039C419.248 220.5 418.614 220.262 418.056 220.459Z" fill="white"/>
<path d="M424.404 226.364C425.077 225.982 425.915 225.349 426.547 224.344C426.729 224.054 426.642 223.674 426.353 223.492C426.063 223.309 425.681 223.397 425.499 223.686C424.925 224.599 424.121 225.129 423.564 225.409L422.457 219.325C422.396 218.989 422.075 218.766 421.738 218.827C421.402 218.888 421.179 219.21 421.24 219.546L422.483 226.38C422.513 226.551 422.615 226.7 422.761 226.792C422.907 226.885 423.086 226.913 423.253 226.867C423.294 226.855 423.777 226.719 424.404 226.364Z" fill="#270A04"/>
<path d="M419.983 220.562L419.104 219.836C420.449 218.204 422.126 217.416 424.09 217.495L424.044 218.633C422.433 218.569 421.105 219.2 419.983 220.562Z" fill="white"/>
<path d="M439.526 211.194C439.302 211.273 439.042 211.206 438.888 211.009C438.694 210.761 438.736 210.403 438.983 210.208C439.223 210.021 444.892 205.612 450.684 205.743C450.999 205.751 451.248 206.011 451.241 206.326C451.234 206.64 450.974 206.89 450.659 206.882C445.28 206.761 439.743 211.061 439.688 211.104C439.638 211.144 439.583 211.174 439.526 211.194Z" fill="white"/>
</g>
</g>
<defs>
<clipPath id="clip0_1_1559">
<rect width="800" height="600" fill="white"/>
</clipPath>
</defs>
</svg>
