<svg width="2000" height="2000" viewBox="0 0 2000 2000" fill="none" xmlns="http://www.w3.org/2000/svg">
<rect width="2000" height="2000" fill="#F5F5F5"/>
<g clip-path="url(#clip0_0_1)">
<mask id="mask0_0_1" style="mask-type:luminance" maskUnits="userSpaceOnUse" x="0" y="0" width="2000" height="2000">
<path d="M2000 0H0V2000H2000V0Z" fill="white"/>
</mask>
<g mask="url(#mask0_0_1)">
<path d="M1799.48 1498.31C1799.32 1498.31 1799.16 1498.32 1799 1498.33L1800.41 1473.89H1676.12L1682.11 1577.54C1683.23 1596.97 1699.31 1612.15 1718.77 1612.15H1757.75C1777.21 1612.15 1793.3 1596.97 1794.42 1577.54L1795.8 1553.63C1797.01 1553.74 1798.24 1553.81 1799.48 1553.81C1817.63 1553.81 1832.39 1541.36 1832.39 1526.06C1832.39 1510.76 1817.63 1498.31 1799.48 1498.31ZM1799.48 1542.32C1798.46 1542.32 1797.45 1542.24 1796.46 1542.13L1798.33 1509.85C1798.71 1509.83 1799.09 1509.8 1799.48 1509.8C1811.29 1509.8 1820.89 1517.1 1820.89 1526.06C1820.89 1535.02 1811.29 1542.32 1799.48 1542.32Z" fill="#ED6F57"/>
<path d="M1245 1541.8C1296.01 1554.87 1366.08 1566.6 1343.75 1610.2L1216.68 1610.08L1245 1541.8Z" fill="#E28B6D"/>
<path d="M717.455 1644.38H594.549C552.58 1644.38 518.557 1610.36 518.557 1568.39V1317.37C518.557 1275.4 552.58 1241.38 594.549 1241.38H717.455C759.424 1241.38 793.448 1275.4 793.448 1317.37V1568.39C793.448 1610.36 759.424 1644.38 717.455 1644.38Z" fill="#0F2048"/>
<path d="M579.768 1278.53C575.151 1279.74 572.037 1283.96 569.954 1288.26C567.82 1292.64 566.501 1297.44 565.435 1302.25C563.346 1311.91 562.361 1321.83 561.817 1331.75C560.809 1351.63 561.219 1371.59 562.434 1391.5C563.566 1411.41 565.393 1431.3 567.798 1451.11C568.958 1461.02 570.294 1470.92 571.823 1480.78C573.288 1490.65 574.933 1500.5 576.941 1510.28L575.511 1510.6C573.12 1500.87 571.073 1491.06 569.238 1481.21C567.488 1471.35 565.93 1461.45 564.548 1451.53C561.867 1431.67 559.897 1411.72 558.725 1391.71C557.705 1371.7 557.202 1351.61 558.657 1331.55C559.423 1321.54 560.569 1311.5 562.969 1301.67C564.24 1296.77 565.761 1291.89 568.172 1287.35C569.38 1285.09 570.808 1282.91 572.654 1281.04C574.483 1279.18 576.818 1277.68 579.44 1277.11L579.768 1278.53Z" fill="white"/>
<path d="M626.791 1305.09C626.791 1305.09 634.568 1462.82 683.529 1636.34H817.315L626.791 1305.09Z" fill="#1F3C87"/>
<path d="M688.164 1224.57C654.546 1206.28 645.325 1160.96 669.876 1131.54C672.24 1128.7 674.864 1125.84 677.768 1122.94C715.278 1085.58 691.908 1048.2 686.664 962.236C681.425 876.357 777.098 852.905 777.283 852.86C781.794 851.756 790.526 838.881 794.216 835.68C837.398 798.227 899.341 800.995 946.675 829.498C969.195 843.059 991.858 863.943 1004.05 887.9C1023.38 925.897 1026.87 975.96 1059.43 1005.55C1105.83 1047.73 1157.31 1083.54 1155.23 1151.57C1154.5 1175.74 1148.45 1201.27 1133.72 1220.64C1120.88 1237.52 1101.33 1248.85 1083.68 1259.77C1055 1277.52 1024.72 1293.22 992.697 1303.76C961.691 1313.97 930.342 1323.14 898.905 1331.89C895.934 1332.72 892.961 1333.54 889.986 1334.36L688.164 1224.57Z" fill="#6F3328"/>
<path d="M906.941 1187.42C1019.31 1148.84 1080.34 1274.61 1164.26 1520.01L1245 1541.8L1235.62 1629.19L1206.16 1635.33L965.602 1636.34L906.941 1187.42Z" fill="#6F8BD5"/>
<path d="M748.643 1169.14L999.927 1232.03L1105.5 1548.38L752.811 1559.13L729.482 1325.22L748.643 1169.14Z" fill="#6F8BD5"/>
<path d="M757.503 1305.09C819.241 1367.24 805.588 1458.32 858.33 1467.36C893.245 1473.34 992.474 1487.52 1039.81 1507.25C1049.38 1511.24 1075.82 1530.89 1071.72 1548.33C1069.08 1559.57 1033.86 1550.57 1033.86 1550.57L770.181 1524.1L714.34 1394.9L757.503 1305.09Z" fill="#1F3C87"/>
<path d="M974.4 1532.92C976.195 1530.09 1014 1522.59 1018.27 1523.18C1032.33 1525.1 1040.01 1536.11 1043.4 1544.54L987.463 1574.04L974.4 1532.92Z" fill="#0F2048"/>
<path d="M1016.25 1304.81L1022.74 1319.6C1024.88 1324.55 1026.87 1329.55 1028.94 1334.52C1032.93 1344.52 1036.77 1354.59 1040.38 1364.74C1047.69 1385 1054.16 1405.56 1060.23 1426.23C1066.19 1446.92 1071.55 1467.79 1076.29 1488.81C1078.58 1499.33 1080.79 1509.88 1082.75 1520.47C1084.67 1531.07 1086.32 1541.72 1087.72 1552.4L1086.33 1552.6C1084.57 1542 1082.55 1531.45 1080.29 1520.95C1078.13 1510.43 1075.72 1499.96 1073.23 1489.51C1068.26 1468.62 1062.79 1447.84 1056.81 1427.21C1050.94 1406.55 1044.41 1386.08 1037.52 1365.74C1034.12 1355.55 1030.42 1345.46 1026.68 1335.4C1024.78 1330.38 1022.94 1325.33 1020.97 1320.33L1014.96 1305.37L1016.25 1304.81Z" fill="#0F2048"/>
<path d="M1217.11 1586.3C1217.11 1586.3 1206.54 1598.8 1173.16 1586.62C1157.44 1588.45 1128.19 1587.05 1072.56 1577.97C1072.56 1577.97 1092.76 1592.1 1138.44 1594.53C1138.44 1594.53 1136.49 1607.97 1112.41 1607.37C1083.44 1606.65 1080.09 1604.9 1053.69 1606C1048.29 1606.22 1036.54 1605.97 1023.81 1605.57C1001.61 1604.85 976.387 1603.67 976.387 1603.67L954.387 1564.35L998.287 1543.32C1011.76 1538.05 1018.49 1536.22 1025.04 1535.3C1053.39 1531.28 1071.29 1528.07 1091.61 1531.57C1114.19 1535.45 1183.16 1558.32 1217.11 1586.3Z" fill="#F9B383"/>
<path d="M1025.04 1604.9L1023.81 1605.58C1001.61 1604.85 976.387 1603.67 976.387 1603.67L954.386 1564.35L998.286 1543.33C1011.76 1538.05 1018.49 1536.22 1025.04 1535.3C1008.9 1541.88 995.686 1559.13 1025.04 1604.9Z" fill="#E28B6D"/>
<path d="M852.22 1186.99C795.105 1175.29 655.911 1165.55 617.018 1237.61C584.997 1296.94 665.26 1495.61 700.03 1565.48C714.341 1594.24 755.894 1608.47 772.051 1608.58L1001.54 1607.26C986.1 1603.68 966.313 1520.83 1018.27 1523.18L828.215 1496.7C820.809 1495.67 814.192 1491.53 810.07 1485.29C807.323 1481.14 804.129 1475.88 802.5 1469.92L748.556 1272.32L852.22 1186.99Z" fill="#6F8BD5"/>
<path d="M1091.73 1530.85C1103.21 1532.54 1114.32 1535.75 1125.34 1539.17C1136.34 1542.62 1147.16 1546.65 1157.81 1551.12C1168.49 1555.48 1178.91 1560.51 1189.04 1566.08C1199.11 1571.74 1208.91 1578.03 1217.58 1585.74L1216.65 1586.87C1212.06 1583.46 1207.33 1580.27 1202.42 1577.34C1197.57 1574.34 1192.56 1571.58 1187.48 1568.96C1177.35 1563.69 1166.98 1558.84 1156.37 1554.55C1145.89 1549.93 1135.12 1546.01 1124.34 1542.17C1118.94 1540.27 1113.49 1538.48 1108.02 1536.81C1102.56 1535.1 1097.05 1533.53 1091.48 1532.3L1091.73 1530.85Z" fill="#6F3328"/>
<path d="M1087.28 1584.16L1099.36 1587.61C1103.38 1588.69 1107.43 1589.62 1111.5 1590.45C1115.56 1591.29 1119.66 1591.93 1123.77 1592.51C1127.89 1593.05 1132.03 1593.46 1136.18 1593.88L1137.56 1594.01L1137.67 1595.21C1137.82 1596.83 1137.65 1598.21 1137.22 1599.67C1136.78 1601.09 1135.96 1602.48 1134.8 1603.48C1133.62 1604.46 1132.25 1605.09 1130.87 1605.39C1130.18 1605.56 1129.49 1605.59 1128.81 1605.68L1126.78 1605.63V1604.16L1128.59 1603.89C1129.16 1603.72 1129.76 1603.63 1130.29 1603.41C1131.39 1603.02 1132.31 1602.4 1133.02 1601.64C1133.73 1600.88 1134.21 1599.94 1134.44 1598.89C1134.67 1597.88 1134.69 1596.65 1134.52 1595.73L1136.01 1597.06C1127.53 1596.9 1119.03 1595.89 1110.73 1593.97C1106.58 1593.02 1102.5 1591.79 1098.5 1590.37C1094.48 1588.99 1090.59 1587.3 1086.77 1585.53L1087.28 1584.16Z" fill="#6F3328"/>
<path d="M1077.05 1555.05C1086.76 1556.29 1096.53 1557.24 1106.3 1558.24C1116.06 1559.32 1125.84 1560.26 1135.61 1561.81C1145.33 1563.36 1154.99 1565.13 1164.66 1566.88C1174.32 1568.65 1183.98 1570.42 1193.61 1572.37L1195.89 1572.83L1194.92 1574.95C1194.28 1576.33 1193.67 1578.41 1192.43 1580.14C1191.9 1581.07 1191.06 1581.77 1190.36 1582.56C1189.52 1583.17 1188.71 1583.86 1187.82 1584.35C1184.28 1586.42 1180.49 1587.12 1176.79 1587.84C1169.33 1589.06 1161.91 1589.01 1154.53 1588.77C1150.85 1588.63 1147.17 1588.47 1143.5 1588.14C1139.83 1587.88 1136.16 1587.61 1132.51 1587.14C1125.2 1586.38 1117.93 1585.34 1110.67 1584.29L1110.85 1582.83C1118.15 1583.43 1125.43 1584.24 1132.73 1584.68C1136.38 1584.96 1140.02 1585.18 1143.67 1585.34C1147.32 1585.58 1150.96 1585.64 1154.6 1585.68C1161.86 1585.71 1169.18 1585.58 1176.21 1584.42C1179.65 1583.72 1183.2 1582.98 1186.01 1581.27C1186.72 1580.87 1187.3 1580.34 1187.96 1579.89C1188.44 1579.29 1189.07 1578.82 1189.43 1578.12C1190.34 1576.85 1190.75 1575.35 1191.6 1573.39L1192.91 1575.97C1173.63 1572.33 1154.37 1568.45 1135.06 1565.1C1125.46 1563.35 1115.71 1562.18 1105.98 1560.87C1096.26 1559.52 1086.5 1558.28 1076.81 1556.5L1077.05 1555.05Z" fill="#6F3328"/>
<path d="M824.118 1261.86C832.414 1267.51 841.657 1271.63 851.314 1273.9C860.965 1276.13 871.023 1276.72 880.749 1275.03C890.476 1273.49 899.861 1269.74 907.752 1263.84C915.71 1258.03 922.021 1250.07 926.465 1241.09L927.812 1241.67C926.772 1244 925.701 1246.34 924.6 1248.67C923.347 1250.91 921.873 1253.04 920.499 1255.24C918.976 1257.33 917.161 1259.19 915.494 1261.19C913.702 1263.06 911.658 1264.68 909.739 1266.44C901.555 1272.91 891.608 1277.04 881.353 1278.7C871.08 1280.28 860.498 1279.73 850.533 1276.97C840.562 1274.26 831.16 1269.53 823.236 1263.03L824.118 1261.86Z" fill="#0F2048"/>
<path d="M758.179 1304.9L770.712 1347.49L783.044 1390.14L795.245 1432.82L801.312 1454.17L804.346 1464.84C805.389 1468.41 806.242 1472.05 807.648 1475.15C810.399 1481.6 815.962 1486.37 822.253 1489.66C828.621 1492.92 835.682 1494.94 842.81 1496.51C849.977 1498.05 857.227 1499.09 864.584 1500.04L886.578 1503.02L930.55 1509.1L974.49 1515.42L974.307 1516.82L930.219 1511.59L886.162 1506.12L864.141 1503.32C856.82 1502.42 849.405 1501.39 842.094 1499.85C834.793 1498.27 827.478 1496.24 820.635 1492.79C813.895 1489.33 807.472 1483.95 804.406 1476.61C803.952 1475.74 803.637 1474.81 803.336 1473.88C803.031 1472.96 802.682 1472.02 802.461 1471.14L800.968 1465.8L797.979 1455.11L792.005 1433.73L780.125 1390.96L768.377 1348.15L756.828 1305.28L758.179 1304.9Z" fill="#0F2048"/>
<path d="M900.905 1097.64L912.156 1194.52C915.506 1223.36 885.113 1247.52 854.31 1239.53C836.696 1234.96 818.344 1222.77 799.351 1204.45C795.444 1200.68 793.071 1195.81 792.54 1190.61L780.546 1073.86L900.905 1097.64Z" fill="#F9B383"/>
<path d="M902.436 1110.82L908.562 1163.57C883.67 1167.48 848.581 1153.48 812.976 1106.23L902.436 1110.82Z" fill="#3C1B16"/>
<path d="M963.829 1027.9C962.393 1045.47 959.617 1063.82 954.687 1080.31C946.359 1108.02 931.832 1130.38 906.943 1134.52C833.664 1146.7 780.559 1073.85 780.559 1073.85L772.039 974.724L816.266 898.214L915.295 895.342L963.59 952.467C963.59 952.467 967.083 988.102 963.829 1027.9Z" fill="#F9B383"/>
<path d="M769.666 1012.39C809.002 1009.45 818.06 976.207 820.748 933.116C820.748 933.116 927.294 906.726 965.121 982.468L993.805 985.577L906.94 870.261L771.937 886.366L745.525 974.004L769.666 1012.39Z" fill="#6F3328"/>
<path d="M790.477 999.469C785.846 994.366 778.937 991.774 772.097 992.602C745.965 995.766 741.426 1030.37 747.4 1045.09C756.343 1067.13 780.554 1073.84 780.554 1073.84L801.356 1051.84C803.02 1028.93 800.416 1010.42 790.477 999.469Z" fill="#F9B383"/>
<path d="M790.907 1100.43C805.266 1141.26 849.445 1256.57 777.289 1253.67C742.511 1252.28 711.953 1184.82 662.376 1197.55C667.845 1194.91 673.999 1192.51 680.914 1190.39L790.907 1100.43Z" fill="#3C1B16"/>
<path d="M780.554 1073.84C794.472 1100.28 833.414 1231.08 767.084 1223.53C735.115 1219.88 727.266 1181.38 680.915 1190.39L780.554 1073.84Z" fill="#6F3328"/>
<path d="M782.832 1023.43C782.932 1020.36 781.965 1017.55 780.447 1015.17C778.897 1012.81 776.747 1010.85 774.306 1009.76C771.875 1008.66 769.232 1008.46 766.736 1009.36C764.211 1010.25 761.958 1012.24 759.749 1014.54L758.14 1013.58C759.402 1010.44 761.571 1007.31 765.023 1005.52C765.888 1005.09 766.761 1004.64 767.744 1004.5C768.703 1004.27 769.671 1004.07 770.661 1004.15L772.137 1004.2L773.564 1004.5C774.539 1004.66 775.426 1005.02 776.294 1005.44C779.759 1007.07 782.483 1009.89 784.04 1013.22C785.636 1016.53 785.956 1020.5 784.66 1023.83L782.832 1023.43Z" fill="#3C1B16"/>
<path d="M923.032 1008.66C923.268 1015.4 927.192 1020.73 931.798 1020.57C936.404 1020.41 939.946 1014.82 939.71 1008.08C939.474 1001.34 935.55 996.012 930.944 996.173C926.338 996.334 922.796 1001.93 923.032 1008.66Z" fill="#3C1B16"/>
<path d="M850.379 1011.21C850.615 1017.95 854.539 1023.28 859.145 1023.11C863.751 1022.95 867.293 1017.36 867.057 1010.62C866.821 1003.89 862.897 998.557 858.291 998.718C853.685 998.88 850.143 1004.47 850.379 1011.21Z" fill="#3C1B16"/>
<path d="M922.11 1077.25C918.941 1081.24 915.113 1084.98 910.134 1087.45C905.118 1089.87 898.968 1090.18 893.688 1088.62C888.357 1087.1 883.81 1084.21 879.741 1081C875.619 1077.82 872.104 1074.06 868.908 1070.08L870.422 1068.51C874.569 1071.38 878.461 1074.45 882.583 1077.03C886.658 1079.63 890.853 1082.04 895.222 1083.3C899.585 1084.6 904.005 1084.53 908.291 1083.07C912.553 1081.49 916.565 1078.66 920.591 1075.69L922.11 1077.25Z" fill="#3C1B16"/>
<path d="M947.629 987.854C944.381 985.611 941.362 983.487 938.284 982.118C935.19 980.795 932.228 980.102 929.164 980.453C926.108 980.741 922.961 981.822 919.715 983.236C916.45 984.657 913.253 986.566 909.581 988.191L908.581 987.142C910.576 983.616 913.2 980.471 916.542 977.959C919.865 975.473 923.986 973.546 928.601 973.196C933.214 972.751 937.976 974.413 941.37 977.097C944.836 979.754 947.279 983.193 948.769 986.958L947.629 987.854Z" fill="#3C1B16"/>
<path d="M874.838 990.404C871.345 987.922 867.902 986.02 864.341 984.889C860.775 983.804 857.182 983.378 853.566 983.796C849.959 984.191 846.351 985.214 842.734 986.703C839.11 988.203 835.557 990.145 831.603 992.033L830.602 990.984C832.858 987.15 835.975 983.838 839.744 981.226C843.511 978.626 848.07 976.88 852.877 976.446C857.671 975.975 862.693 977.033 866.803 979.448C870.938 981.806 874.225 985.378 875.978 989.508L874.838 990.404Z" fill="#3C1B16"/>
<path d="M804.475 1057.8C804.99 1072.51 817.329 1084.01 832.036 1083.5C846.742 1082.98 858.246 1070.64 857.73 1055.94C857.215 1041.23 844.876 1029.73 830.17 1030.24C815.464 1030.76 803.96 1043.1 804.475 1057.8Z" fill="#FB8778"/>
<path d="M963.829 1027.9C962.393 1045.47 959.617 1063.82 954.687 1080.31C943.439 1077.51 934.943 1067.51 934.513 1055.37C933.986 1040.66 945.497 1028.33 960.191 1027.8C961.412 1027.76 962.632 1027.8 963.829 1027.9Z" fill="#FB8778"/>
<path d="M892.96 1003.4C893.079 1002.14 894.817 1001.98 895.188 1003.19C901.146 1022.63 920.497 1036.84 917.401 1042.54C915.221 1046.55 907.034 1051.1 901.295 1053.91C898.266 1055.39 894.635 1053.6 893.997 1050.27C891.226 1035.84 891.387 1019.97 892.96 1003.4Z" fill="#FB8778"/>
<path d="M897.104 1001.43C898.437 1007.12 901.036 1012.29 904.188 1017.15C907.357 1022.01 911.069 1026.53 914.821 1031.28C915.769 1032.47 916.68 1033.71 917.579 1035.03C918.466 1036.36 919.368 1037.72 920.06 1039.59C920.382 1040.52 920.702 1041.68 920.412 1043.2C919.993 1044.92 919.276 1045.5 918.711 1046.3C917.472 1047.69 916.169 1048.71 914.829 1049.62C909.493 1053.19 903.823 1055.38 897.967 1057.19L897.134 1055.18C899.691 1053.66 902.312 1052.23 904.782 1050.61C907.277 1049.06 909.756 1047.45 911.917 1045.7C912.976 1044.81 913.994 1043.9 914.706 1043C914.996 1042.59 915.329 1041.99 915.183 1042.22C915.195 1042.25 915.14 1041.89 914.951 1041.42C914.172 1039.43 912.167 1036.98 910.44 1034.67C906.816 1029.96 903.013 1025.06 900.097 1019.56C897.123 1014.12 895.054 1007.94 894.943 1001.68L897.104 1001.43Z" fill="#3C1B16"/>
<path d="M757.272 1081.1C755.586 1084.82 755.034 1088.94 755.284 1093C755.562 1097.07 756.633 1101.08 758.142 1104.9C761.364 1112.49 765.658 1119.92 769.428 1127.59C773.277 1135.22 776.647 1143.35 778.19 1152.07C778.926 1156.43 779.165 1160.9 778.826 1165.35C778.525 1167.56 778.314 1169.77 777.731 1172.02C777.096 1174.21 776.371 1176.41 775.267 1178.44C773.195 1182.54 770.039 1186.21 766.02 1188.71C762.034 1191.28 757.086 1192.37 752.379 1191.91C747.611 1191.31 743.612 1189.58 739.618 1187.98C735.65 1186.33 731.769 1184.59 727.912 1182.86C720.199 1179.46 712.398 1176.16 704.306 1174.66C700.286 1173.91 696.162 1173.66 692.325 1174.67C690.43 1175.21 688.648 1176.06 687.066 1177.24C685.478 1178.41 684.192 1179.97 683.046 1181.64L681.43 1180.7C682.543 1178.78 683.859 1176.92 685.599 1175.43C687.353 1173.96 689.392 1172.85 691.553 1172.11C695.92 1170.72 700.495 1170.76 704.835 1171.35C713.542 1172.69 721.634 1175.84 729.546 1179.01L741.289 1183.89C745.163 1185.42 749.126 1186.97 752.833 1187.37C756.585 1187.68 760.357 1186.82 763.513 1184.74C766.691 1182.72 769.254 1179.67 771.061 1176.25C772.016 1174.55 772.64 1172.68 773.208 1170.82C773.716 1168.95 773.932 1166.92 774.23 1164.93C774.571 1160.9 774.4 1156.84 773.764 1152.81C772.421 1144.75 769.281 1136.97 765.781 1129.33C762.3 1121.63 758.219 1114.21 755.103 1106.03C753.696 1101.88 752.756 1097.53 752.671 1093.1C752.586 1088.69 753.478 1084.17 755.601 1080.26L757.272 1081.1Z" fill="#3C1B16"/>
<path d="M758.616 858.399C765.791 855.162 773.31 852.842 780.883 850.855C788.455 848.831 796.151 847.333 803.888 846.12C811.635 844.96 819.446 844.137 827.301 843.907C831.228 843.808 835.161 843.822 839.097 844.016C843.026 844.273 846.967 844.717 850.834 845.528L850.572 847.381C846.721 847.263 842.903 847.13 839.056 847.36C835.219 847.446 831.377 847.71 827.546 848.083C819.882 848.779 812.227 849.706 804.597 850.83C796.963 851.947 789.37 853.332 781.791 854.792C778 855.523 774.234 856.366 770.484 857.267C766.704 858.08 763.006 859.145 759.271 860.152L758.616 858.399Z" fill="#3C1B16"/>
<path d="M820.324 932.283C823.519 930.591 826.894 929.574 830.287 928.741C833.686 927.952 837.112 927.264 840.561 926.808C847.461 925.869 854.418 925.49 861.374 925.494C875.291 925.49 889.21 927.438 902.699 931.086C916.14 934.85 929.155 940.767 940.332 949.334C945.876 953.646 951.011 958.528 955.325 964.07C959.589 969.64 963.219 975.67 965.966 982.067L964.276 982.87C957.777 970.923 948.862 960.416 937.833 952.686C932.359 948.794 926.554 945.352 920.43 942.534C914.314 939.696 907.901 937.533 901.414 935.651C888.421 931.878 874.866 930.077 861.295 929.534C854.504 929.263 847.69 929.43 840.925 930.029C834.202 930.628 827.302 931.497 821.173 933.95L820.324 932.283Z" fill="#3C1B16"/>
<path d="M1864.32 1666.27H155.679V1607.38H1864.32V1666.27Z" fill="#CBECFE"/>
<path d="M155.679 1607.38H1864.32" stroke="#0F2048" stroke-width="5" stroke-miterlimit="10"/>
<path d="M1360 1608.58L1136.1 1608.44V1587.32H1361.3L1360 1608.58Z" fill="white"/>
<path d="M1549.17 1608.58L1279.08 1608.5L1377.6 1320.42L1647.69 1320.5L1549.17 1608.58Z" fill="#0F2048"/>
<path d="M1485.14 1479.88C1476.86 1493.1 1461.39 1498.52 1449.59 1492.73C1448.89 1492.4 1448.21 1492.03 1447.54 1491.6C1435.51 1484.1 1432.89 1466.65 1441.64 1452.68C1450.39 1438.68 1467.21 1433.43 1479.24 1440.95C1482.86 1443.23 1485.61 1446.38 1487.49 1450.08C1491.79 1458.65 1491.24 1470.13 1485.14 1479.88Z" fill="white"/>
<path d="M1485.14 1479.88C1476.86 1493.1 1456.52 1502.71 1442.26 1486.99C1473.19 1489.79 1483.6 1469.53 1483.02 1443.93C1493.6 1455.63 1491.24 1470.13 1485.14 1479.88Z" fill="#6F8BD5"/>
<g opacity="0.603746">
<path d="M417.34 1350.91L435.439 1356.77C437 1357.28 438.075 1358.66 438.182 1360.3C438.289 1361.94 437.4 1363.45 435.918 1364.15L416.151 1373.53L416.185 1373.79L443.835 1379.3C444.87 1379.51 445.548 1380.52 445.341 1381.56C445.135 1382.6 444.125 1383.27 443.087 1383.06L415.436 1377.56C413.726 1377.21 412.481 1375.88 412.266 1374.14C412.05 1372.41 412.93 1370.81 414.508 1370.06L434.274 1360.69L434.257 1360.42L416.158 1354.56C415.15 1354.23 414.598 1353.15 414.925 1352.14C415.252 1351.13 416.333 1350.58 417.34 1350.91Z" fill="#3C1B16"/>
</g>
<g opacity="0.498098">
<path d="M1552.21 1267.69H1471.88C1458.74 1267.69 1447.99 1256.94 1447.99 1243.8V1171.47C1447.99 1158.33 1458.74 1147.58 1471.88 1147.58H1552.21C1565.35 1147.58 1576.11 1158.33 1576.11 1171.47V1243.8C1576.11 1256.94 1565.35 1267.69 1552.21 1267.69Z" fill="white"/>
<path d="M1552.21 1267.69H1471.88C1458.74 1267.69 1447.99 1256.94 1447.99 1243.8V1171.47C1447.99 1158.33 1458.74 1147.58 1471.88 1147.58H1552.21C1565.35 1147.58 1576.11 1158.33 1576.11 1171.47V1243.8C1576.11 1256.94 1565.35 1267.69 1552.21 1267.69Z" stroke="#1F3C87" stroke-width="3.75" stroke-miterlimit="10"/>
<path d="M1512.05 1291.43L1488.76 1267.69H1535.33L1512.05 1291.43Z" fill="#1F3C87"/>
</g>
<g opacity="0.498098">
<path d="M1487.5 1197.09L1513.5 1227.59L1542 1172.59" stroke="#0F2048" stroke-width="8"/>
</g>
<path d="M598.607 1604.8C597.204 1608.06 594.142 1610.28 590.621 1610.82C562.629 1615.13 555.791 1607.4 555.791 1607.4C555.791 1607.4 533.515 1619.8 481.156 1605.05C479.855 1607.48 477.228 1609.44 474.217 1610.41C466.205 1613.04 435.099 1610.34 414.84 1608.22C402.592 1606.92 366.716 1609.8 366.716 1609.8C334.03 1609.8 296.905 1601.07 282.539 1568.28C264.346 1526.8 283.483 1477.06 314.332 1447.36C347.248 1415.62 391.162 1412.76 431.094 1433.56C527.954 1484.03 535.276 1467.57 560.129 1446.65L576.893 1573.85C582.379 1575.76 587.201 1578.39 590.672 1582.04C593.045 1584.54 594.857 1586.86 596.184 1589.03C600.522 1596.02 600.113 1601.28 598.607 1604.8Z" fill="#ED6F57"/>
<path d="M389.896 1493.18C397.683 1494.44 405.435 1497.18 411.921 1502.1C415.069 1504.63 417.968 1507.63 419.973 1511.21C422.027 1514.74 423.502 1518.6 424.313 1522.59C425.082 1526.58 425.381 1530.63 425.237 1534.66C425.046 1538.67 424.509 1542.65 423.745 1546.57C422.131 1554.39 419.627 1561.97 416.526 1569.27C414.991 1572.93 413.259 1576.5 411.368 1580L410.643 1581.31L410.263 1581.98L410.238 1582.02C410.408 1582.59 408.603 1577.19 409.39 1579.49L409.474 1579.52L409.643 1579.59L409.978 1579.72L412.676 1580.78C414.478 1581.47 416.307 1582.1 418.139 1582.72C425.484 1585.14 433.052 1586.86 440.703 1588.06C448.323 1589.15 456.322 1590 463.984 1591.93C467.827 1592.9 471.653 1594.05 475.305 1595.78C477.133 1596.62 478.912 1597.69 480.463 1599.16C481.201 1599.91 481.946 1600.81 482.225 1601.98C482.636 1603.12 482.27 1604.38 481.79 1605.38L480.529 1604.7C481.297 1603.17 480.591 1601.6 479.229 1600.44C477.881 1599.29 476.222 1598.35 474.46 1597.65C470.958 1596.17 467.188 1595.22 463.409 1594.43C455.805 1592.74 448.158 1592.14 440.248 1591.23C432.388 1590.22 424.631 1588.42 417.065 1586.04C415.177 1585.42 413.294 1584.79 411.435 1584.1L408.653 1583.03L408.306 1582.9L408.132 1582.83L408.046 1582.8C408.813 1585.08 406.948 1579.67 407.153 1580.21L407.174 1580.18L407.516 1579.56L408.201 1578.3C410.005 1574.89 411.639 1571.38 413.19 1567.84C416.274 1560.75 418.763 1553.39 420.379 1545.88C421.144 1542.12 421.687 1538.32 421.901 1534.51C422.037 1530.7 421.915 1526.9 421.276 1523.18C419.961 1515.76 416.259 1508.8 410.361 1504.03C404.532 1499.18 397.171 1496.28 389.621 1494.59L389.896 1493.18Z" fill="#3C1B16"/>
<path d="M323.901 1480.26C288.228 1488.71 248.663 1500.42 231.742 1536.38C215.759 1570.35 232.394 1603.35 264.504 1619.41C286.231 1630.29 369.027 1648.6 334.646 1688.78C312.431 1714.74 273.861 1706.71 248.495 1691.39C235.279 1683.4 223.236 1704.09 236.416 1712.05C265.259 1729.48 298.463 1735.87 329.836 1721.46C363.887 1705.82 377.285 1665.73 351.308 1636.41C337.986 1621.37 319.171 1614.3 300.678 1607.94C283.19 1601.92 260.291 1595.19 251.8 1576.76C243.809 1559.4 254.295 1539.57 267.608 1528.15C284.833 1513.37 308.793 1508.42 330.263 1503.34C345.243 1499.79 338.901 1476.71 323.901 1480.26Z" fill="#ED6F57"/>
<path d="M529.988 1475.14C491.938 1497.5 490.688 1568.33 564.146 1575.25L572.563 1543.13L529.988 1475.14Z" fill="#3C1B16"/>
<path d="M651.782 1524.02C692.336 1526.39 695.247 1473.57 695.247 1473.57C695.247 1473.57 667.504 1459.49 641.507 1476.95L651.782 1524.02Z" fill="#ED6F57"/>
<path d="M654.073 1508.03C670.224 1507.77 678.169 1487.47 678.169 1487.47C678.169 1487.47 666.264 1480.19 651.271 1487.64L654.073 1508.03Z" fill="#3C1B16"/>
<path d="M537.247 1475.14C509.127 1445.82 547.417 1409.33 547.417 1409.33C547.417 1409.33 576.135 1421.29 579.725 1452.4L537.247 1475.14Z" fill="#ED6F57"/>
<path d="M547.246 1462.87C537.433 1450.99 547.246 1432.66 547.246 1432.66C547.246 1432.66 559.9 1436.79 563.773 1452.29L547.246 1462.87Z" fill="#3C1B16"/>
<path d="M661.763 1527.8C654.038 1554.95 641.288 1570.5 628.213 1579.15C616.038 1587.28 603.638 1589.4 594.688 1589.4C586.638 1589.4 578.638 1588.13 570.988 1585.7C541.888 1576.55 518.113 1551.05 518.113 1517.55C518.113 1475.25 548.838 1442.83 587.513 1442.83C631.788 1442.83 675.513 1479.38 661.763 1527.8Z" fill="#ED6F57"/>
<path d="M628.213 1579.15C616.038 1587.28 603.638 1589.4 594.688 1589.4C594.088 1589.4 593.513 1589.4 592.913 1589.38C591.613 1587.25 589.838 1584.98 587.513 1582.53C584.113 1578.95 579.388 1576.38 574.013 1574.5C585.888 1572.08 592.763 1575.25 592.763 1575.25C592.763 1575.25 614.638 1564.38 628.163 1579.1C628.188 1579.13 628.188 1579.13 628.213 1579.15Z" fill="#3C1B16"/>
<path d="M586.92 1591.26C583.07 1596.81 583.757 1604.52 589.119 1608.62C590.362 1609.57 591.68 1610.2 592.982 1610.2H631.123C632.947 1610.2 633.919 1608.25 634.412 1605.72C635.896 1598.08 632.694 1590.34 626.743 1585.33C614.439 1574.99 598.045 1575.24 586.92 1591.26Z" fill="#ED6F57"/>
<path d="M518.102 1570.76C525.829 1570.42 533.536 1570.74 541.233 1571.43C548.931 1572.12 556.589 1573.39 564.147 1575.25C567.925 1576.19 571.647 1577.4 575.287 1578.87C578.911 1580.36 582.507 1582.05 585.777 1584.36C589.03 1586.65 592.023 1589.53 594.035 1593.12C596.009 1596.72 596.668 1600.99 595.978 1604.9L594.584 1604.75C594.725 1601.04 593.892 1597.38 591.873 1594.39C589.944 1591.36 587.144 1588.91 584.027 1586.96C577.773 1583.03 570.565 1580.56 563.259 1578.69C555.959 1576.7 548.427 1575.53 540.889 1574.45C533.34 1573.43 525.719 1572.69 518.102 1572.17V1570.76Z" fill="#3C1B16"/>
<path d="M607.998 1505.75C610.67 1510.67 614.29 1515.07 619.123 1516.58C621.519 1517.34 624.123 1517.53 626.813 1517.23C628.154 1517.1 629.498 1516.74 630.883 1516.54C632.23 1516.14 633.592 1515.74 635.023 1515.43L635.711 1516.82C634.46 1517.64 633.141 1518.39 631.805 1519.13C630.37 1519.65 628.96 1520.33 627.425 1520.65C624.382 1521.43 621.014 1521.4 617.844 1520.43C614.664 1519.43 611.903 1517.31 610.025 1514.74C608.136 1512.16 606.899 1509.27 606.497 1506.15L607.998 1505.75Z" fill="#3C1B16"/>
<path d="M564.485 1486.96C566.768 1492.07 570.035 1496.74 574.736 1498.62C577.066 1499.56 579.647 1499.95 582.353 1499.86C583.699 1499.84 585.067 1499.58 586.464 1499.49C587.838 1499.2 589.226 1498.91 590.678 1498.7L591.256 1500.15C589.945 1500.87 588.571 1501.51 587.181 1502.15C585.71 1502.56 584.253 1503.12 582.697 1503.33C579.603 1503.87 576.247 1503.57 573.162 1502.36C570.068 1501.12 567.481 1498.79 565.808 1496.08C564.125 1493.36 563.116 1490.38 562.956 1487.25L564.485 1486.96Z" fill="#3C1B16"/>
<path d="M1488.47 902.232H1530.72L1496.98 683.83H1454.74L1488.47 902.232Z" fill="#8BBEBE"/>
<path d="M1530.76 902.232H1573L1539.27 683.83H1497.02L1530.76 902.232Z" fill="#C6E9E8"/>
<path d="M1744.8 902.198H1588.89V801.902H1744.8V902.198Z" fill="#8BBEBE"/>
<path d="M1699.81 852.051H1633.88V834.489H1699.81V852.051Z" fill="white"/>
<path d="M1454.74 902.197H1381.37V617.821H1454.74V902.197Z" fill="#C6E9E8"/>
<path d="M1780.94 933.778H1341.87V902.198H1780.94V933.778Z" fill="#8BBEBE"/>
<path d="M1156.75 491.31C1156.75 569.262 1093.56 632.455 1015.61 632.455C937.656 632.455 874.464 569.262 874.464 491.31C874.464 413.358 937.656 350.165 1015.61 350.165C1093.56 350.165 1156.75 413.358 1156.75 491.31Z" fill="#CBECFE"/>
<path d="M1156.75 491.31C1156.75 569.262 1093.56 632.455 1015.61 632.455C937.656 632.455 874.464 569.262 874.464 491.31C874.464 413.358 937.656 350.165 1015.61 350.165C1093.56 350.165 1156.75 413.358 1156.75 491.31Z" stroke="#6F8BD5" stroke-width="5" stroke-miterlimit="10"/>
<path d="M974.686 420.496L1015.98 490.724Z" fill="#0F2048"/>
<path d="M974.686 420.496L1015.98 490.724" stroke="#0F2048" stroke-width="5"/>
<path d="M1070.5 518L1017 491Z" fill="#0F2048"/>
<path d="M1070.5 518L1017 491" stroke="#0F2048" stroke-width="5"/>
<g opacity="0.383152">
<path d="M567.039 781.705H347.155C330.111 781.705 316.293 767.888 316.293 750.843V627.221C316.293 610.176 330.111 596.359 347.155 596.359H567.039C584.084 596.359 597.901 610.176 597.901 627.221V750.843C597.901 767.888 584.084 781.705 567.039 781.705Z" fill="#C6E9E8"/>
</g>
<g opacity="0.383152">
<path d="M562.271 660.396H351.923V642.876H562.271V660.396Z" fill="#8BBEBE"/>
</g>
<g opacity="0.383152">
<path d="M562.271 697.792H351.923V680.272H562.271V697.792Z" fill="white"/>
</g>
<g opacity="0.383152">
<path d="M562.271 735.187H351.923V717.667H562.271V735.187Z" fill="white"/>
</g>
<g opacity="0.383152">
<path d="M387.466 1141.02L347.486 1109.75H427.446L387.466 1141.02Z" fill="#FAC242"/>
<path d="M438.227 1109.78H218.343C201.299 1109.78 187.481 1095.96 187.481 1078.92V955.296C187.481 938.251 201.299 924.434 218.343 924.434H438.227C455.271 924.434 469.089 938.251 469.089 955.296V1078.92C469.089 1095.96 455.271 1109.78 438.227 1109.78Z" fill="#FAC242"/>
</g>
<g opacity="0.383152">
<path d="M274.31 1063.9H247.048V1030.2H274.31V1063.9Z" fill="white"/>
</g>
<g opacity="0.383152">
<path d="M318.082 1063.9H290.822V992.691H318.082V1063.9Z" fill="white"/>
</g>
<g opacity="0.383152">
<path d="M363.801 1063.9H336.541V1008.86H363.801V1063.9Z" fill="white"/>
</g>
<g opacity="0.383152">
<path d="M409.521 1063.9H382.259V970.317H409.521V1063.9Z" fill="white"/>
</g>
<path d="M1711.25 1396.25C1711.25 1396.25 1659.24 1425.68 1710 1451.86" stroke="#E1FEF5" stroke-width="7.99119" stroke-linecap="round"/>
<path d="M1755.75 1398C1755.75 1398 1804.5 1447 1755.5 1457.25" stroke="#E1FEF5" stroke-width="8" stroke-linecap="round"/>
<path d="M1739.25 1382.75C1739.25 1382.75 1715 1394.25 1730.25 1421.25C1745.5 1448.25 1754.5 1448.25 1729.75 1456.75" stroke="#E1FEF5" stroke-width="8" stroke-linecap="round"/>
</g>
</g>
<defs>
<clipPath id="clip0_0_1">
<rect width="2000" height="2000" fill="white"/>
</clipPath>
</defs>
</svg>
