<?xml version="1.0" encoding="UTF-8"?>
<svg id="_레이어_1" data-name="레이어 1" xmlns="http://www.w3.org/2000/svg" viewBox="0 0 1200 1350">
  <defs>
    <style>
      .cls-1 {
        fill: #ddd;
      }

      .cls-2, .cls-3, .cls-4, .cls-5, .cls-6 {
        fill: #fff;
      }

      .cls-7 {
        letter-spacing: -.03em;
      }

      .cls-8 {
        font-size: 31.25px;
      }

      .cls-8, .cls-6 {
        font-family: NotoSansCJKkr-Bold-KSCpc-EUC-H, 'Noto Sans CJK KR';
        font-weight: 700;
      }

      .cls-9 {
        letter-spacing: -.01em;
      }

      .cls-10 {
        fill: #f89a32;
      }

      .cls-11 {
        fill: #f93;
      }

      .cls-12, .cls-13 {
        fill: #333;
      }

      .cls-12, .cls-5, .cls-14 {
        font-family: NotoSansCJKkr-DemiLight-KSCpc-EUC-H, 'Noto Sans CJK KR';
        font-weight: 300;
      }

      .cls-12, .cls-14 {
        font-size: 21.88px;
      }

      .cls-15 {
        fill: #222;
      }

      .cls-16 {
        letter-spacing: -.01em;
      }

      .cls-17 {
        letter-spacing: -.05em;
      }

      .cls-3 {
        stroke-width: .57px;
      }

      .cls-3, .cls-18 {
        stroke: #231f20;
      }

      .cls-3, .cls-18, .cls-19 {
        stroke-miterlimit: 10;
      }

      .cls-20 {
        letter-spacing: -.02em;
      }

      .cls-4 {
        stroke: #000;
        stroke-linecap: round;
        stroke-linejoin: round;
        stroke-width: 10px;
      }

      .cls-5 {
        font-size: 25px;
      }

      .cls-21 {
        letter-spacing: -.03em;
      }

      .cls-22 {
        letter-spacing: 0em;
      }

      .cls-23 {
        fill: #99928d;
      }

      .cls-24 {
        fill: #999;
      }

      .cls-25 {
        fill: #e8e8e8;
      }

      .cls-26 {
        fill: #ccc;
      }

      .cls-27 {
        fill: #dd6c07;
      }

      .cls-18 {
        fill: none;
        stroke-width: .29px;
      }

      .cls-6 {
        font-size: 120px;
      }

      .cls-28 {
        fill: #c9c4c0;
      }

      .cls-29 {
        letter-spacing: 0em;
      }

      .cls-30 {
        letter-spacing: 0em;
      }

      .cls-19 {
        fill: #90331d;
        stroke: #221e1f;
      }

      .cls-31 {
        fill: #231f20;
      }

      .cls-32 {
        fill: #994942;
      }
    </style>
  </defs>
  <rect class="cls-11" width="1200" height="675"/>
  <rect class="cls-2" y="675" width="1200" height="675"/>
  <ellipse class="cls-27" cx="923.42" cy="565.22" rx="191.08" ry="58.49"/>
  <path class="cls-4" d="m810.02,442.39s-12.83,90.04,3.45,120.8c0,0,4.06,11.84,29.99,15.91,29.99,4.71,41.05-15.91,41.05-15.91,0,0,10.36-20.19,10.36-41.34,0,0,38.93,7.69,58.69,0,0,0,4.29,29.8,12.76,42.3,8.47,12.5,19.95,18.09,32.33,17.88,20.72-.36,39.33-9.8,42.95-28.07,3.55-17.92,2.75-75.36-13.53-111.89l-5.3-51.91-216.54-4.81,3.78,57.04Z"/>
  <g>
    <g>
      <path class="cls-2" d="m915.85,410.1c-56.49,0-100.53-12.89-130.89-38.32-31.08-26.03-46.84-64.26-46.84-113.63,0-49.87,16.09-92.13,46.54-122.21,31.42-31.05,76.79-47.46,131.2-47.46,47.98,0,89.46,12.96,119.98,37.49,29.51,23.72,48.58,57.91,55.14,98.86,1.73,10.82,2.61,22.03,2.61,33.32,0,43.2-12.15,78.02-36.12,103.51-23.51,25-57.93,40.51-102.29,46.09-12.39,1.56-25.62,2.35-39.31,2.35Z"/>
      <path d="m915.85,93.48c97.36,0,157.5,52.99,170.18,132.14,1.67,10.41,2.55,21.27,2.55,32.53,0,84.86-48.03,133.82-134.04,144.64-12.15,1.53-25.06,2.31-38.69,2.31-110.18,0-172.74-50.09-172.74-146.95,0-96.85,62.56-164.67,172.74-164.67m0-10c-55.75,0-102.33,16.91-134.71,48.9-31.42,31.04-48.02,74.53-48.02,125.77,0,25.25,4.12,48.01,12.26,67.65,8.14,19.66,20.38,36.42,36.37,49.81,31.29,26.2,76.41,39.49,134.1,39.49,13.9,0,27.34-.8,39.93-2.38,45.55-5.73,80.98-21.75,105.31-47.62,24.87-26.45,37.48-62.42,37.48-106.94,0-11.55-.9-23.03-2.68-34.11-6.76-42.2-26.45-77.46-56.94-101.97-15.54-12.5-33.78-22.12-54.2-28.61-20.85-6.63-44.04-9.99-68.91-9.99h0Z"/>
    </g>
    <g>
      <path class="cls-3" d="m1086.03,225.63c-12.68-79.15-72.81-132.14-170.18-132.14-110.18,0-172.74,67.82-172.74,164.67,0,96.85,62.56,146.95,172.74,146.95,13.63,0,26.54-.78,38.69-2.31,86.01-10.82,134.04-59.77,134.04-144.64,0-11.26-.88-22.12-2.55-32.53Z"/>
      <g>
        <path class="cls-2" d="m1086.03,225.63c-12.68-79.15-72.81-132.14-170.18-132.14-110.18,0-172.74,67.82-172.74,164.67,0,96.85,62.56,146.95,172.74,146.95,13.63,0,26.54-.78,38.69-2.31,92.75-37.4,122.55-118.09,131.49-177.17Z"/>
        <path class="cls-25" d="m954.54,402.8c86.01-10.82,134.04-59.77,134.04-144.64,0-11.26-.88-22.12-2.55-32.53-8.94,59.07-38.74,139.77-131.49,177.17Z"/>
      </g>
      <g>
        <path class="cls-13" d="m875.17,258c0,4.82-5.49,8.71-12.26,8.71-6.77,0-12.26-3.89-12.26-8.71,0-4.81,5.49-8.71,12.26-8.71,6.77,0,12.26,3.9,12.26,8.71Z"/>
        <path class="cls-31" d="m981.04,258c0,4.82-5.5,8.71-12.26,8.71-6.77,0-12.26-3.89-12.26-8.71,0-4.81,5.49-8.71,12.26-8.71s12.26,3.9,12.26,8.71Z"/>
        <path class="cls-11" d="m981.04,294.51c0,15.37-29.19,27.81-65.2,27.81-36.01,0-65.2-12.44-65.2-27.81,0-15.34,29.19-27.8,65.2-27.8,36.01,0,65.2,12.46,65.2,27.8Z"/>
      </g>
      <g>
        <path class="cls-23" d="m1032.66,144.86c10.27,20.79,19.23,47.51,7.29,55.63-12.51,8.47-42.12-2.97-62.48-12.7,31.54,24.51,69.11,38.89,79.12,27.98,10.36-11.29,6-43.81-23.93-70.9Z"/>
        <path class="cls-28" d="m1039.96,200.48c11.94-8.11,2.98-34.83-7.29-55.63-.97-.88-1.97-1.76-3-2.63-32.63-27.57-87.56-42.26-98.25-30.6-10.69,11.65,7.1,43.44,39.72,71.01,2.08,1.76,4.2,3.46,6.34,5.14,20.35,9.73,49.96,21.18,62.48,12.7Z"/>
      </g>
    </g>
  </g>
  <g>
    <path class="cls-19" d="m820.63,340.26c10.75,16.05,6.54,37.56-9.38,48.03h0c-15.92,10.48-37.54,5.96-48.29-10.1l-28.31-42.3c-10.74-16.05-6.54-37.56,9.38-48.03h0c15.93-10.48,37.54-5.96,48.28,10.1l28.31,42.3Z"/>
    <path class="cls-32" d="m781.79,302.66c7.87,11.74,20.58,15.02,9,22.63-6.69,4.4-23.3,1.55-30.02-8.48-6.72-10.04-6.75-21.74-.06-26.14,6.68-4.39,14.36,1.95,21.08,11.99Z"/>
  </g>
  <path class="cls-15" d="m762.92,282.21c11.36,0,22.57,5.55,29.4,15.74l28.31,42.3c10.75,16.05,6.54,37.56-9.38,48.03-5.81,3.82-12.37,5.65-18.89,5.65-11.36,0-22.57-5.54-29.4-15.75l-28.31-42.3c-10.74-16.05-6.54-37.56,9.38-48.03,5.81-3.82,12.37-5.65,18.89-5.65m0-10c-8.7,0-17.13,2.52-24.39,7.29-9.87,6.49-16.6,16.46-18.95,28.06-2.38,11.78.01,23.81,6.75,33.89l28.31,42.3c8.46,12.64,22.56,20.18,37.71,20.18,8.7,0,17.13-2.52,24.38-7.29,9.88-6.5,16.61-16.47,18.95-28.08,2.38-11.78-.02-23.81-6.76-33.87l-28.31-42.3c-8.46-12.64-22.55-20.18-37.71-20.18h0Z"/>
  <path class="cls-4" d="m816.93,461.66s-24.17,10.35-54.27-3.45c-30.09-13.8-19.17-52.11-15.72-60.73,3.45-8.62,19.67-58.25,67.52-58.25,27.63,3.45,31.57,23.28,31.08,28.02s-1.52,24.14-18.75,50.44"/>
  <path class="cls-4" d="m1014.93,454.87s24.17,10.35,54.27-3.45c30.09-13.8,19.17-52.11,15.72-60.73s-19.67-58.25-67.52-58.25c-27.63,3.45-31.57,23.28-31.08,28.02.49,4.74,1.52,24.14,18.75,50.44"/>
  <text class="cls-6" transform="translate(91.89 565.22)"><tspan x="0" y="0">찹쌀이</tspan></text>
  <text class="cls-5" transform="translate(98.98 623.72)"><tspan x="0" y="0">팥을 좋아하는 미식가. 찹쌀떡 찹쌀이</tspan></text>
  <polygon class="cls-2" points="711.95 308.79 719.41 320.47 732.34 315.46 720.66 322.92 725.67 335.84 718.21 324.16 705.29 329.18 716.97 321.71 711.95 308.79"/>
  <polygon class="cls-2" points="721.15 334.47 717.56 341.17 723.41 346.01 716.72 342.42 711.88 348.27 715.47 341.58 709.61 336.74 716.31 340.33 721.15 334.47"/>
  <text class="cls-8" transform="translate(103.03 747.32)"><tspan x="0" y="0">Cha</tspan><tspan class="cls-21" x="59" y="0">r</tspan><tspan x="71.66" y="0">a</tspan><tspan class="cls-16" x="90.12" y="0">c</tspan><tspan class="cls-20" x="106.22" y="0">t</tspan><tspan x="118.75" y="0">er Design</tspan></text>
  <text class="cls-8" transform="translate(103.03 982.57)"><tspan x="0" y="0">Cha</tspan><tspan class="cls-21" x="59" y="0">r</tspan><tspan x="71.66" y="0">a</tspan><tspan class="cls-16" x="90.12" y="0">c</tspan><tspan class="cls-20" x="106.22" y="0">t</tspan><tspan x="118.75" y="0">er </tspan><tspan class="cls-17" x="157.62" y="0">T</tspan><tspan class="cls-22" x="175.62" y="0">urna</tspan><tspan class="cls-9" x="247.65" y="0">r</tspan><tspan class="cls-30" x="260.9" y="0">ound</tspan></text>
  <text class="cls-12" transform="translate(103.03 803.46)"><tspan x="0" y="0">배고픈 아침에 우리의 속을 든든하게 채워주는 영양만점 찹쌀떡을 디자인하였습니다.</tspan><tspan x="0" y="52.5">외형은 부드러운 찹쌀반죽에 비쳐보이는 팥을 머리 오른쪽위에 표현하였고</tspan><tspan x="0" y="78.75">입은 둥글고 타원형으로 색은 팥색깔을 적용하였습니다. </tspan></text>
  <path class="cls-11" d="m658.89,970.98c0,16.98-30.2,30.73-67.45,30.73s-67.45-13.75-67.45-30.73,30.2-30.72,67.45-30.72,67.45,13.77,67.45,30.72Z"/>
  <path class="cls-26" d="m806.28,970.98c0,16.98-30.2,30.73-67.45,30.73s-67.45-13.75-67.45-30.73,30.2-30.72,67.45-30.72,67.45,13.77,67.45,30.72Z"/>
  <path class="cls-24" d="m953.66,970.98c0,16.98-30.2,30.73-67.45,30.73s-67.45-13.75-67.45-30.73,30.2-30.72,67.45-30.72,67.45,13.77,67.45,30.72Z"/>
  <g>
    <path class="cls-2" d="m1033.6,1004.21c-39.22,0-69.95-14.6-69.95-33.23s30.73-33.22,69.95-33.22,69.95,14.59,69.95,33.22-30.73,33.23-69.95,33.23Z"/>
    <path class="cls-1" d="m1033.6,940.26c37.25,0,67.45,13.77,67.45,30.72s-30.2,30.73-67.45,30.73-67.45-13.75-67.45-30.73,30.2-30.72,67.45-30.72m0-5c-18.71,0-36.39,3.36-49.77,9.45-14.63,6.66-22.68,15.99-22.68,26.27s8.06,19.62,22.68,26.28c13.37,6.09,31.05,9.45,49.77,9.45s36.39-3.36,49.77-9.45c14.63-6.66,22.68-16,22.68-26.28s-8.06-19.61-22.68-26.27c-13.38-6.1-31.05-9.45-49.77-9.45h0Z"/>
  </g>
  <g>
    <g>
      <path class="cls-2" d="m610.45,1306.39c-73.52,0-114.02-36.88-114.02-103.83,0-34.1,10.3-62.99,29.77-83.54,20.15-21.27,49.29-32.51,84.24-32.51,61.58,0,103.57,34.86,112.33,93.25,1.11,7.35,1.68,15.02,1.68,22.8,0,1.19-.01,2.4-.04,3.62.68.14,1.25.56,1.6,1.13,4.23,1.89,6.72,5.49,6.69,9.98-.02,4.7-2.35,7.05-4.83,8.85,2.85,1.92,4.67,5.24,4.94,9.37.39,6-2.82,12.9-9.73,14.48-1.85.42-3.78.63-5.74.63-.58,0-1.16-.02-1.75-.05-12.98,30.2-40.55,48.93-79.84,54.21-7.98,1.07-16.49,1.61-25.31,1.61Z"/>
      <path d="m610.45,1089c62.85,0,101.67,36.54,109.86,91.13,1.09,7.18,1.65,14.67,1.65,22.43,0,2.05-.04,4.07-.12,6.05.68,0,1.37.01,2.05.01h-2.06s0,0,0,.01c4.4.8,8.4,3.57,8.37,8.63-.03,5.52-3.83,6.55-7.66,9.57,10.67,1,10.13,18.39-.02,20.71-1.73.39-3.46.57-5.18.57-1.12,0-2.24-.07-3.35-.21-12.51,30.82-39.46,49.14-78.58,54.39-7.84,1.05-16.17,1.59-24.97,1.59-71.12,0-111.52-34.54-111.52-101.33s40.39-113.56,111.52-113.56m0-5c-35.66,0-65.42,11.51-86.06,33.29-19.93,21.03-30.46,50.51-30.46,85.26,0,68.57,41.38,106.33,116.52,106.33,8.93,0,17.55-.55,25.64-1.64,20.33-2.73,37.64-8.94,51.44-18.44,13.09-9.02,23.06-21.01,29.68-35.69.05,0,.1,0,.14,0,2.15,0,4.27-.23,6.29-.7,8.27-1.89,12.13-10.02,11.67-17.08-.24-3.64-1.55-6.8-3.64-9.15,1.93-1.95,3.51-4.67,3.53-8.9.03-5.24-2.82-9.59-7.56-11.97-.21-.24-.45-.47-.71-.66,0-.71.01-1.41.01-2.11,0-7.91-.57-15.7-1.71-23.18-4.29-28.58-16.77-52.47-36.12-69.08-20.04-17.21-47.25-26.3-78.69-26.3h0Z"/>
    </g>
    <path class="cls-3" d="m720.3,1180.12c-8.18-54.58-47.01-91.13-109.86-91.13-71.12,0-111.52,46.77-111.52,113.56s40.39,101.33,111.52,101.33c8.8,0,17.13-.54,24.97-1.59,55.52-7.46,86.53-41.22,86.53-99.74,0-7.76-.56-15.25-1.65-22.43Z"/>
    <g>
      <path class="cls-2" d="m720.3,1180.12c-8.18-54.58-47.01-91.13-109.86-91.13-71.12,0-111.52,46.77-111.52,113.56s40.39,101.33,111.52,101.33c8.8,0,17.13-.54,24.97-1.59,59.87-25.79,79.11-81.44,84.88-122.17Z"/>
      <path class="cls-25" d="m635.42,1302.3c55.52-7.46,86.53-41.22,86.53-99.74,0-7.76-.56-15.25-1.65-22.43-5.77,40.74-25.01,96.38-84.88,122.17Z"/>
    </g>
    <g>
      <path class="cls-2" d="m237.52,1306.39c-73.52,0-114.01-36.88-114.01-103.83,0-34.1,10.29-62.99,29.77-83.54,20.15-21.27,49.28-32.51,84.24-32.51,61.58,0,103.57,34.86,112.33,93.25,1.11,7.4,1.68,15.08,1.68,22.8,0,29.51-7.76,53.29-23.07,70.67-15.06,17.11-37.14,27.72-65.63,31.55-7.98,1.07-16.5,1.61-25.31,1.61Z"/>
      <path d="m237.52,1089c62.86,0,101.67,36.54,109.86,91.13,1.08,7.18,1.65,14.67,1.65,22.43,0,58.52-31.01,92.28-86.53,99.74-7.84,1.05-16.18,1.59-24.97,1.59-71.13,0-111.51-34.54-111.51-101.33s40.39-113.56,111.51-113.56m0-5c-35.66,0-65.42,11.51-86.06,33.29-19.92,21.03-30.45,50.51-30.45,85.26,0,68.57,41.38,106.33,116.51,106.33,8.93,0,17.55-.55,25.64-1.64,29.1-3.91,51.7-14.8,67.18-32.37,15.72-17.86,23.69-42.19,23.69-72.32,0-7.85-.57-15.65-1.7-23.17-4.29-28.59-16.78-52.48-36.12-69.08-20.04-17.21-47.25-26.3-78.69-26.3h0Z"/>
    </g>
    <path class="cls-3" d="m347.38,1180.12c-8.19-54.58-47-91.13-109.86-91.13-71.13,0-111.51,46.77-111.51,113.56s40.39,101.33,111.51,101.33c8.8,0,17.13-.54,24.97-1.59,55.52-7.46,86.53-41.22,86.53-99.74,0-7.76-.57-15.25-1.65-22.43Z"/>
    <g>
      <path class="cls-2" d="m347.38,1180.12c-8.19-54.58-47-91.13-109.86-91.13-71.13,0-111.51,46.77-111.51,113.56s40.39,101.33,111.51,101.33c8.8,0,17.13-.54,24.97-1.59,59.87-25.79,79.11-81.44,84.88-122.17Z"/>
      <path class="cls-25" d="m262.5,1302.3c55.52-7.46,86.53-41.22,86.53-99.74,0-7.76-.57-15.25-1.65-22.43-5.77,40.74-25.01,96.38-84.88,122.17Z"/>
    </g>
    <line class="cls-18" x1="117.27" y1="1088.72" x2="1082.73" y2="1088.72"/>
    <g>
      <path class="cls-2" d="m961.69,1306.39c-73.52,0-114.02-36.88-114.02-103.83,0-34.1,10.29-62.99,29.77-83.54,20.15-21.27,49.29-32.51,84.25-32.51,61.58,0,103.57,34.86,112.34,93.25,1.11,7.38,1.67,15.05,1.67,22.8,0,29.51-7.76,53.29-23.07,70.67-15.06,17.11-37.14,27.72-65.63,31.55-7.98,1.07-16.49,1.61-25.3,1.61Z"/>
      <path d="m961.69,1089c62.85,0,101.67,36.54,109.87,91.13,1.08,7.18,1.64,14.67,1.64,22.43,0,58.52-31.01,92.28-86.54,99.74-7.84,1.05-16.17,1.59-24.97,1.59-71.13,0-111.52-34.54-111.52-101.33s40.39-113.56,111.52-113.56m0-5c-35.66,0-65.42,11.51-86.06,33.29-19.92,21.03-30.45,50.51-30.45,85.26,0,68.57,41.38,106.33,116.52,106.33,8.93,0,17.55-.55,25.64-1.64,29.1-3.91,51.71-14.8,67.18-32.37,15.72-17.86,23.69-42.19,23.69-72.32,0-7.88-.57-15.67-1.7-23.17-4.29-28.59-16.78-52.48-36.12-69.08-20.04-17.21-47.25-26.3-78.69-26.3h0Z"/>
    </g>
    <line class="cls-18" x1="117.27" y1="1303.89" x2="1082.73" y2="1303.89"/>
    <g>
      <path class="cls-13" d="m211.26,1202.45c0,3.32-3.54,6.01-7.91,6.01s-7.92-2.68-7.92-6.01,3.54-6.01,7.92-6.01,7.91,2.69,7.91,6.01Z"/>
      <path class="cls-31" d="m279.61,1202.45c0,3.32-3.55,6.01-7.91,6.01s-7.92-2.68-7.92-6.01,3.55-6.01,7.92-6.01,7.91,2.69,7.91,6.01Z"/>
      <path class="cls-11" d="m279.61,1227.62c0,10.6-18.85,19.18-42.09,19.18s-42.09-8.58-42.09-19.18,18.84-19.17,42.09-19.17,42.09,8.59,42.09,19.17Z"/>
    </g>
    <g>
      <path class="cls-24" d="m312.94,1124.42c6.63,14.34,12.41,32.77,4.71,38.36-8.08,5.84-27.19-2.05-40.33-8.76,20.36,16.9,44.61,26.82,51.07,19.29,6.69-7.78,3.87-30.21-15.45-48.89Z"/>
      <path class="cls-26" d="m317.64,1162.78c7.71-5.59,1.92-24.02-4.71-38.36-.62-.61-1.27-1.21-1.94-1.81-21.06-19.01-56.52-29.14-63.43-21.1-6.9,8.03,4.58,29.96,25.64,48.97,1.34,1.21,2.71,2.39,4.09,3.54,13.14,6.71,32.25,14.6,40.33,8.76Z"/>
    </g>
    <path class="cls-3" d="m1071.56,1180.12c-8.19-54.58-47.02-91.13-109.87-91.13-71.13,0-111.52,46.77-111.52,113.56s40.39,101.33,111.52,101.33c8.8,0,17.13-.54,24.97-1.59,55.52-7.46,86.54-41.22,86.54-99.74,0-7.76-.56-15.25-1.64-22.43Z"/>
    <g>
      <path class="cls-2" d="m1071.56,1180.12c-8.19-54.58-47.02-91.13-109.87-91.13-71.13,0-111.52,46.77-111.52,113.56s40.39,101.33,111.52,101.33c8.8,0,17.13-.54,24.97-1.59,59.87-25.79,79.11-81.44,84.89-122.17Z"/>
      <path class="cls-25" d="m986.66,1302.3c55.52-7.46,86.54-41.22,86.54-99.74,0-7.76-.56-15.25-1.64-22.43-5.78,40.74-25.02,96.38-84.89,122.17Z"/>
    </g>
    <path class="cls-10" d="m680.64,1227.62c0,9.32,14.59,17.08,33.93,18.81,4.28-11.09,6.73-23.76,7.27-37.97-22.83.22-41.2,8.71-41.2,19.16Z"/>
    <path class="cls-31" d="m696.48,1202.45c0,3.32-3.55,6.01-7.92,6.01s-7.92-2.68-7.92-6.01,3.55-6.01,7.92-6.01,7.92,2.69,7.92,6.01Z"/>
    <path class="cls-11" d="m722.55,1226.84c3.83-3.03,7.63-4.06,7.66-9.57.03-5.08-4.01-7.86-8.42-8.64h2.11c-2.11,0-4.22-.07-6.31,0-10.53.34-23.12,2.42-31.56,7.38-11.96,7.03-5.31,17.42,4.05,22.29,9.49,4.93,20.98,11.87,32.46,9.26,10.15-2.31,10.69-19.7.02-20.71Z"/>
    <line class="cls-18" x1="117.27" y1="1208.45" x2="1082.73" y2="1208.45"/>
  </g>
  <text class="cls-14" transform="translate(551.27 978.46)"><tspan x="0" y="0">#FF9933</tspan></text>
  <text class="cls-14" transform="translate(696.97 978.46)"><tspan x="0" y="0">#</tspan><tspan class="cls-7" x="12.01" y="0">CCCCC</tspan><tspan class="cls-29" x="78.07" y="0">C</tspan></text>
  <text class="cls-14" transform="translate(845.33 978.46)"><tspan x="0" y="0">#999999</tspan></text>
  <text class="cls-14" transform="translate(993.54 978.46)"><tspan x="0" y="0">#FFFFFF</tspan></text>
</svg>